<svg xmlns="http://www.w3.org/2000/svg" fill="none" stroke="currentColor" stroke-width="1.5" viewBox="0 0 24 24"><path stroke-linecap="round" stroke-linejoin="round" d="M8.63 12a.38.38 0 1 1-.76 0 .38.38 0 0 1 .75 0m0 0h-.37m4.13 0a.38.38 0 1 1-.76 0 .38.38 0 0 1 .76 0m0 0H12m4.13 0a.38.38 0 1 1-.75 0 .38.38 0 0 1 .74 0m0 0h-.37M21 12c0 4.56-4.03 8.25-9 8.25a10 10 0 0 1-2.56-.34 6 6 0 0 1-4.03 1.06l-.47-.06a4.5 4.5 0 0 0 .97-2.03c.1-.46-.13-.9-.46-1.23A7.9 7.9 0 0 1 3 12c0-4.56 4.03-8.25 9-8.25s9 3.7 9 8.25"/></svg>