<svg xmlns="http://www.w3.org/2000/svg" fill="none" viewBox="0 0 24 24"><path fill="currentColor" d="m16.1 13.36-.53-.53zm.46-.45.53.53zm2.41-.32-.35.66zm1.91 1.04-.35.66zm.54 3.25.53.54zM20 18.3l-.53-.54zm-1.32.66.07.75zm-9.86-4.23.52-.54zM4 5.75l-.75.04zm6.48 1.45.53.53zm.15-2.66.6-.45zM9.37 2.86l-.6.45zm-3.11-.28.53.53zM4.69 4.14l-.53-.54zm7.37 7.36.53-.54zm4.57 2.4.45-.46-1.05-1.07-.46.46zm1.98-.65 1.91 1.04.72-1.32-1.91-1.04zm2.28 3.1-1.42 1.41 1.06 1.07 1.42-1.41zm-2.28 1.87c-1.45.13-5.2.01-9.27-4.02L8.3 15.26c4.43 4.4 8.65 4.62 10.45 4.45zM9.34 14.2c-3.87-3.85-4.5-7.1-4.59-8.5l-1.5.09c.1 1.77.9 5.35 5.04 9.47zm1.38-6.18.28-.3-1.05-1.05-.29.28zm.51-3.93L9.97 2.41l-1.2.9 1.26 1.68zm-5.5-2.05L4.16 3.6l1.06 1.07L6.8 3.1zm4.46 5.44-.53-.53-.13.16q-.09.12-.16.32a2 2 0 0 0-.1 1.07c.14.87.74 2.01 2.26 3.53l1.06-1.06c-1.43-1.43-1.77-2.29-1.83-2.7q-.02-.3.01-.3v-.02l-.03.04-.01.01-.01.01zm1.34 4.55c1.53 1.52 2.68 2.1 3.55 2.24q.66.09 1.07-.09a2 2 0 0 0 .42-.23l.05-.05-.52-.54-.53-.53.01-.01.01-.01.04-.03q.02-.01 0 0a1 1 0 0 1-.33 0c-.41-.05-1.28-.4-2.7-1.81zM9.97 2.4a2.83 2.83 0 0 0-4.24-.37L6.8 3.11c.53-.53 1.48-.48 1.98.2zM4.75 5.7q-.03-.53.47-1.04L4.16 3.6a2.9 2.9 0 0 0-.9 2.19zm14.72 12.05q-.41.42-.86.46l.14 1.5a3 3 0 0 0 1.78-.9zM11.01 7.73a2.8 2.8 0 0 0 .23-3.63l-1.2.9c.4.53.34 1.24-.1 1.67zm9.52 6.56c.81.44.94 1.49.36 2.06l1.06 1.07a2.8 2.8 0 0 0-.7-4.45zm-3.45-.85c.39-.38 1-.48 1.54-.2l.71-1.3a2.8 2.8 0 0 0-3.3.44z"/></svg>