<svg xmlns="http://www.w3.org/2000/svg" data-name="Layer 1" viewBox="0 0 2706.644 3000"><path fill="#fff" d="M1300.7 2914.5c-2.9-4.1-47.9-67-150.6-129a844 844 0 0 0-211.4-89.2c-98.2-27.1-207.7-40.9-325.3-40.9H364.6v-63a129 129 0 0 0-128.8-128.9h-63v-509.7c-47-57.2-173.9-232.3-173.9-453.8s126.9-396.6 173.8-453.8V536.5h63a129 129 0 0 0 128.9-128.9v-63h248.8c117.6 0 227.1-13.8 325.3-41 78-21.5 149-51.5 211.4-89 103-62.3 148-125.3 150.6-129.1L1353.8 2l52.1 83.5c3 4.1 48 67 150.7 129a844 844 0 0 0 211.3 89.2c98.2 27.1 207.7 40.9 325.4 40.9H2342v63A129 129 0 0 0 2471 536.5h63v509.7c47 57.2 173.8 232.3 173.8 453.8s-126.8 396.6-173.8 453.8v509.7h-63a129 129 0 0 0-128.9 128.9v63h-248.7c-117.7 0-227.2 13.8-325.4 41-78 21.5-149 51.5-211.3 89-103.1 62.3-148 125.4-150.7 129.2l-53 83.4z"/><path fill="#231f20" d="m1352.8 3000-53-84.9c-2-3-47.3-66.6-150.3-128.7a843 843 0 0 0-211-89c-98.2-27.2-207.6-41-325.1-41H363.6v-64a128 128 0 0 0-127.8-127.8h-64.1v-510.4A836 836 0 0 1 67.3 1789c-46-96.3-69.4-193.6-69.4-289s23.3-192.7 69.4-289a836 836 0 0 1 104.4-165.2V535.4h64a128 128 0 0 0 127.9-127.8v-64h249.8c117.5 0 227-13.8 325-41a843 843 0 0 0 211.1-89C1253 151.2 1298 87.6 1300 85l54-84.9 53 85c1.8 2.6 47 66.3 150.2 128.6a843 843 0 0 0 211.1 89c98.1 27.2 207.5 41 325 41h249.9v64a128 128 0 0 0 127.8 127.8h64v510.4a836 836 0 0 1 104.5 165.2c46 96.3 69.3 193.6 69.3 289s-23.3 192.7-69.3 289a836 836 0 0 1-104.4 165.2v510.4h-64.1a128 128 0 0 0-127.8 127.8v64h-249.8c-117.6 0-227 13.8-325 41a843 843 0 0 0-211.2 89c-103.4 62.4-148.5 126-150.3 128.8zm-987.1-345.6h247.7c117.7 0 227.3 13.8 325.6 41a845 845 0 0 1 211.6 89.2c103.6 62.5 149.1 126.6 151 129.3l51.2 82.2 52.2-82.1c2-2.7 47.2-66.8 151-129.4a845 845 0 0 1 211.6-89.3c98.4-27.1 208-41 325.7-41H2341v-62a130 130 0 0 1 129.9-129.8h62v-509l.2-.3a834 834 0 0 0 104.4-165.1c45.9-96 69.1-193 69.1-288.1s-23.2-192-69.1-288a834 834 0 0 0-104.4-165.2l-.2-.3v-509h-62a130 130 0 0 1-130-129.9v-62h-247.6c-117.8 0-227.3-13.8-325.7-41a845 845 0 0 1-211.6-89.2C1452.4 153 1407 88.8 1405 86.1l-51.2-82.2-52.2 82.1c-1.9 2.7-47.2 66.8-151 129.4A845 845 0 0 1 939 304.7c-98.3 27.1-207.9 41-325.6 41H365.7v62a130 130 0 0 1-130 129.8h-62v509l-.2.3A834 834 0 0 0 69.2 1212C23.2 1308 0 1405 0 1500s23.3 192 69.2 288a834 834 0 0 0 104.3 165.2l.3.3v509h62a130 130 0 0 1 129.9 129.9z"/><path d="M1763.3 1043.5c-19-1.4-35.6 11.8-49.4 23.3-117.4 98.2-168.8 393.5-188.8 544-5.6 42-12.3 120.4-2 160 10.8 41.1 44.6 15.5 63.3-5.5 66.9-75 34.7-201 120.6-274 85-72.2 175.3 4.8 118.6 102.1-18.6 32-45.8 51.4-79 66.3-16.5 7.4-34.5 5-41.7 26.8-15.1 46.3 17.6 69.2 60.1 49 81.2-38.4 120.7-179.7 156.6-254.4 9.2-19.1 13.1-29.3 35-36.3 33.5-11 76.3-16 112-25 23.4-6.1 68.6-25.1 88.6-26.7 26-2 36.4 24.4 22 44.1-42 71.4-115.5 138.3-156.8 207.7-5.9 9.9-13 21.4-9.3 33.5 3.9 12.6 68.4 30.9 82.4 28.7 53.4-8.5 93.1-123.6 111-168.6 14.9-37.6 26.5-82 44-117.6 7.3-14.7 17.6-32.1 34-37.5 18-6 52.7-7.1 73.5-11.3 37-7.5 64.6-15.1 97.7-33.8 15.4-8.7 24.7-26.7 45.5-16.4 11 5.5 15.8 20 10.3 31-41.1 64-89.6 124.5-127.3 190.6-6.8 12-17 24.8-15.6 39.5 1.3 13.7 33.1 2 42.7 1.3 154.3-13 137.9 167 36.8 231.4-118.3 75.5-308.3 107.5-446 132.3-300.7 54-604.4 87.2-906 135.6-105.6 17-232.5 15.2-313 84.1-19.5 16.8-37.8 50.5-53.5 61.6-39 27.6-61.3-19.5-41-57.5 54.1-100.9 168.8-102.2 271-120.7 386-70 779.2-102.7 1163.1-185.3 71.4-15.4 149-33 216.7-60.1 48-19.3 141.3-63.7 133.4-126.5-9-72.2-121.6-22.4-159.7-4-9.4 4.5-36.8 23.3-41.7 24.2-39.2 7.1-10.2-56.7-1.7-73 31.9-61 79.2-119.5 114.2-179 6-14.4 4.8-25.8-13.6-24.7-49.7 2.8-77.4 18.1-98.6 63.1-37 78.3-77.8 264-183.8 271.2-45.6 3-75.7-28-125.3-21.2-15 2-38 19.2-48.7 8.8-14.2-13.9 5.2-46.5 14.2-59.7 43.5-64.2 107.2-123.6 150.4-189.4 6.7-10.9 5.2-25.3-9.4-26.1-48.4 15.3-76.3 0-104.6 49.2-35.4 61.8-52.6 123.6-98.8 183.4-48.4 62.4-142.4 138.8-208 52.3-19.5 31.6-37.7 63.5-70.2 83.3-60.7 37-112.9 10.4-130-55.9-5-19-2.1-47.1-21.4-57.2-10 1-43.2 52.8-53.9 64.1-26.8 28.6-67.8 59.2-108.9 43-9.5-3.8-24.8-18-34.4-16.6-18.2 2.7-37.5 36.1-52.8 48.8-37.4 31-85.7 34.7-108.7-14.5-7.3-15.6-7.5-30.4-11.8-45.7-2.8-9.6-7.4-22.9-19.4-13.9-7.5 5.6-26.4 36.7-35.4 46.8-25.9 29.1-75.9 77.5-112.5 35.7-40.7-46.5.1-168 28.4-215.7 29.2-49.2 88.6-104.2 150.6-83.8 6.1 2 21.2 11.3 23.4 11.2 13.4-.7 18.9-21.2 27.8-29.8 19.5-18.7 47.8-12.8 44.8 17.2-2.8 27-24 77.6-31 109-8.8 39.5-21.2 100.5-13.8 139.9 5.8 30.6 32.4 2.1 44-11 46.8-53.3 54.7-145.4 85.8-210.3 29.8-62.2 90.7-125.6 166.1-115.7 19 2.5 37.5 23.7 52.2 5.1 51.6-244.6 74.7-336.9 163.3-438 33.5-38.2 124.6-104.6 166.8-43.3 42.9 62.4-34.6 168.2-91.8 195-39 18.3-62.8-20.3-25.4-50 20.3-16 32.4-16.5 50.3-40.2 15-20 26.3-42.6 23.5-68.3m10.1 478.4c-16.7 3.3-38 30-46.4 44.2-6.7 11.5-25.6 44.3-7.8 52.7 29.6-9.9 67-42.1 71.1-74.4 1.8-14.2.1-25.9-16.9-22.5m-358.9 19.2c-79.6 4.5-134 151.9-124.8 219.3 3.2 24.1 8 29.7 30.8 18.6 48.9-23.8 121.2-162.3 119.4-215.3-.7-18.4-6.2-23.6-25.4-22.6m-473.6 292.6c5.5 6.4 41.4-36.9 44.9-41.3a714 714 0 0 0 59.7-93.8c7.5-13.6 31.7-51.3 25.5-64.8-6-13.4-15.3-10.6-26-6.9-64.6 23-105.5 143.3-104.1 206.8"/><path d="M1809.2 431.6c17 17.3 5.1 44.6-7.3 60.7-34.4 44.5-66.2 56-119.3 69.1-40.5 10-93.2 4.6-107 52-29.3 133.9-76.9 265.4-101 400.5-5.3 29.6-15.5 94.7-5 121.1 14.4 36.3 53.7 32.2 37.3 65-13.7 27.4-72.8 5.7-92.2-32-32.5-62.8 9-215 26.4-283.6 20.2-79.6 53-164.3 70.2-242.1 3.7-16.8 8.1-44.1-13-51.3-8.8-3-68.8 7.8-82.6 10.5-30.6 5.9-76.4 15.7-102.8 31.5-24 14.3-36.9 44.2-70.8 47.1-18.6 1.6-39.9-6-38.2-27.9 2.3-30.1 51.4-24 58.2-56.3 7.8-37.8-42.1-27-63.5-16.9-48.4 22.7-130.6 134.6-100 187 10.2 17.4 25.7 12 43.6 8.8 18.5-3.4 56-21.1 69.6-20.5 15.4.6 23.4 13.5 20.2 28-3 13.5-36.5 30.2-48.5 39.2-60 45-110.6 93.4-147 160-26.2 47.8-70.9 172.4 4.2 196 80.3 25.1 167.7-77.8 203.3-139.3 11.1-19.4 33.4-82.5 51.4-88.3 17.4-5.7 24.6 6 25.1 22 2 67.5-20.8 169.3-54.6 228-89.3 154.8-240.4 197.6-442.4 223-45.3 5.6-45.2 12.3-59.3 53-10.6 30.5-18.9 64.8-27.2 96.2-12.6 47.5-39 133.8-43 179.2-.4 5.8-.3 17.7 5 20.1 17.8 8 64.3-.2 83.7-5.6 16.8-4.8 81.6-38 79.4 3-2.2 39.9-85.9 50.5-115.7 53.8-18 2-53.9-4-65.6 11.1-17.6 22.7-43.6 156.8-54.4 195-26.4 93.2-74.7 280.6-192.5 289.9-149.6 11.7-157.1-218.5-65.7-293.2 17.4-14.2 50.8-28.6 70.6-11.1 25.5 22.5-22.6 47.7-34.8 60.6-33.3 35.1-45.6 119.8-18.7 160.8 19.8 30.2 54.4 29 81.5 9 66.1-49.1 122.7-273.5 137-356.3 2.1-11.6 9.9-44.9-.1-51.9-18.5-13-73.7 15-91 26.6-7.3 5-33.2 29.8-35.5 30.3-21 5.3-12.7-29.6-7.6-40.7 13.3-28.9 46.6-50.5 76-61 20.7-7.4 51.6-8 67.1-15 8.3-3.8 14.5-14.5 19.5-21.7 18.4-63.1 33.4-127.1 50.6-190.6 8.7-32.3 22.6-63.4 24.3-97 .7-14-10.6-25.8-24.7-25.4-67.7 1.8-255.9 32.4-268.5 36.2-47.9 14.3-104.6 41.8-127.6 89-12.2 25-17.7 66.4 12.3 81 14.3 7 16 1.5 28.9 1 43.3-1.3 36 47.6 1.4 59.2-51.8 17.4-107.5-32-114.4-83-16-117.8 101.9-180.8 199.4-202 207.6-45.2 648.2-24.2 786.8-217.5 5.4-7.4 35-51.3 29-57.2-2 0-4.2-.3-6.3.4-4 1.3-35.8 34.1-44.4 40.6-135 102.9-272.8 24-226.7-147.3 14.3-53.2 46.6-106.4 81.5-148.6 10-12.1 62.7-63 64-70.5 2.4-14-22-17.6-32.3-27-58.5-52.3-5-161.7 36.8-209.5 45.8-52.4 145.8-108.1 201.5-39.6 4.1 5 6.3 14.6 8.9 17 14 13.5 49.6-5.1 67.3-9.4 105.2-25.6 304.5-10.4 371.3-94 8-10 13.5-28.1 26.7-33.5 10-4.1 23.5-3.6 31.2 4.3m478.6 821.2c-58 27.4-109.4 63.3-169.3 87-46.8 18.5-104.1 37.4-153.6 46.5-20 3.7-54.9 16.4-58.2-11.5-7.3-63 1.6-151.5 3-216.4 1-54.1-1.9-110.9 2.6-164.5 4-48.6 41.6-52.8 82.1-60.4a789 789 0 0 1 245-6.4c17.2 2.4 64.7 9.4 75 22.3 11.7 14.8 10.8 99 11.6 121.3 2.6 65.9 9 151.6 3 216.5-3.6 38.4-41.2 27.7-41.2 19zM1956 1074.7v76.7L2255 981.5c-35.7-3.7-71.7-8.9-107.6-7.6zm2.8 182.2v67.2c5 .4 8.7-3 12.7-5 75-39.2 148.2-89.6 223.9-129.8 30.3-16 61.6-30.4 92.5-45.1-6.3-19.4-.4-40.6-3-60-.4-3.8 1.6-4.7-4-4zm361 874.8c-7.2 7.1-57.5 18.5-70.5 21.4-88.3 19.3-193.7 25.5-282.3 5.4-26-5.8-57.4-12.4-60.4-43.7-1.6-15.8-2-58.7.8-73.5 2.6-14.4 20.4-30.7 35.6-28.9 22.9 2.7 13.8 21.3 15.8 36.5.4 3.2-1.2 5.5 4 4 14.1-4 45.6-28.5 61.7-37 52-27.2 101.7-31.3 157.4-45.3 26.6-6.7 111.6-36.6 131.8-32.6 7.7 1.5 14.3 10.2 15.2 17.6 3.5 26 2.7 140.7-3.6 163.8a39 39 0 0 1-5.5 12.3m-32.1-76v-74l-244 134.3c25.7 2.8 52.3 4.3 78.3 2.9 59.9-3.4 91-30 142.8-54.5 7.2-3.5 15.2-6.4 22.9-8.7m11.6-1209c15.7 3.3 61.8 21.9 64.7 38.2 1.8 10.2-7 21.8-17.5 22.5-10.8.7-51.2-14.8-66.5-18.2-94.6-21-202.4-14.2-296.6 6-20 4.2-93.4 28.3-106.9 21.9-3.7-1.8-7.9-9.8-8.1-13.9-1.5-22.6 45.6-35 61.7-42.1 8.6-65.6 36-114.6 99.3-139.2 81.4-31.7 179.8-30.6 239.2 41.7 20.8 25.4 26.7 51 30.7 83m-44.8-5.2c9.4-37-28.3-72-58.1-88-36.4-19.3-82.8-22.7-122.5-13.1-1 6 .5 5.4 5.4 6.8 13 3.6 33.6 2 49.5 5.4 27 5.6 70.9 27.4 86.1 51 7 10.6 6 23.5 12.4 34.1zm-321 1401.2c-15.7-3.4-61.8-22-64.7-38.3-1.9-10.2 6.9-21.8 17.5-22.5 10.8-.7 51.2 14.8 66.5 18.2 94.3 21 202.6 14.3 296.5-6 20.3-4.3 93.1-28.5 107-21.9 3.6 1.8 7.8 9.8 8.1 14 1.5 22.5-45.6 34.8-61.8 42-8.3 65.3-36.3 114.8-99.2 139.3-81.4 31.6-179.8 30.6-239.2-41.8-20.8-25.4-26.7-51-30.7-83m225.4 100.8c-2-2-47.2-5-57.2-7.3-26.2-5.8-69-27.5-83.9-50.4-6.9-10.7-6-23.5-12.3-34.2l-27.3-3.8c-9.3 38 29.1 73.2 60 89a177 177 0 0 0 110.3 14c2.6-.4 15.4-1.9 10.4-7.3"/><path d="M759.6 735.6c5.3-1.7 8.8 2.6 10.5 7 6 15 7 42.4 13 60.5 8.4 25.7 22.4 47.6 45.8 61.6 5.8 3.5 20.4 6.6 21 13.2.9 9.5-17.9 13-24.6 16.6-33.5 18.5-41.3 59.3-45.1 94.6-2 17.8.3 47-4.2 62.1-1.5 5-7.6 6.5-11.4 3.3-4-3.3-6.8-44-8.2-52.8-5.7-34.5-11.7-91.8-50.3-103.7-9-2.8-30.8-1.4-23.8-15.7 1.4-2.7 25.8-12.8 32.2-18 21-16.6 33-63 38-89 2.3-11.7 2.2-24.4 4.2-35.4.3-2 .7-3.6 2.9-4.3m-298.4 348.8a45 45 0 0 0-12.7-8c-9.5-3.5-24.1 2.6-21.6-11.7.8-4.6 15.6-16.4 19.7-22 13.4-18 19.4-42 24.4-63.6 1.7-7.4 8.1-47.7 10-50 11.1-13.2 13.5 29.9 14.6 35.3 6.9 33.3 16.7 65.6 47.2 84.2 5.4 3.3 13.6 2 12.2 11-1 6-11.4 9-15.8 12.5-27.7 22.7-32.6 65.2-35.8 99-.9 9.3 3.5 38.4-13 22.9-3.9-29.8-7-87.8-29.2-109.6M1765.3 779c-.5 1-14 8.6-17 11.6a79 79 0 0 0-13.7 22.4c-3.4 8.3-6.8 29.3-10.2 34.3-2.2 3-6.5 3-9.4 1-11.7-7.8-4.3-47-32.7-59-5.7-2.3-15.2-.3-15.2-9 0-7.4 11-10.2 16.5-14.8 9-7.3 14.1-17.7 18.2-28.4 3.3-8.6 5.8-27 8.6-32.4s9-1.8 11.1 2.3c7.7 14.7 4.8 30.8 20 45.7 6.6 6.6 30.1 15.5 23.8 26.3m-674.4 1561.4v-109.7l66-12.1v18.5l-48.1 8.9v24.3l44.8-8.2v18.4l-44.8 8.3v29.7l49.8-9.1v18.5zm78.4-50.2 17.6-5.3q3 20.5 19.4 17.5a22 22 0 0 0 12.8-6.7q4.7-5.2 4.7-11.5 0-3.7-1.7-6-1.6-2.4-5-3.5-3.3-1-16-2.6-11.6-1.4-17-4.6a18 18 0 0 1-8.4-9.2q-3.1-6.1-3.1-13.8 0-9 4-16.9 4-8 11.2-12.9 7-5 17.5-6.9 15.8-2.8 24.6 4.1 8.8 7 9.3 23l-18 4.2q-1.2-8.6-5.1-11.4-4-2.8-11.2-1.5-7.3 1.4-11.2 5.2-4 3.7-4 8.3 0 4.5 3.6 6.9t16.4 3.7q13.6 1.5 19.6 4.7t9.2 9.6 3.2 16.2q0 14.3-8.7 25.6t-27.2 14.7q-32.8 6-36.5-30.9m107.6 16v-91l-26.4 4.8v-18.6l70.8-13v18.6l-26.4 4.8v91.1zm42.1-7.7v-21l17.1-3.2v21zm123.3-42.2v19.6l-59.9 11q1-11.3 6-22.2t19-29.7q11.4-15 14-20 3.8-7.4 3.8-14 0-7.3-3.2-10.3t-8.4-2.2q-11.3 2.1-12.2 19.4l-17 1q1.6-17 9.3-26.3 7.6-9.2 20.4-11.6 14-2.5 21.1 5.3 7.1 8 7.1 19.8 0 6.7-1.8 13.4-1.8 6.6-5.6 13.7t-12.6 18.7q-8.2 10.8-10.4 14.2t-3.5 6.5zm40.4-97.9q13-2.3 21 8.6 8 11 8 42.1c0 31.1-2.6 35.7-8 45q-8 13.8-20.9 16.2-13 2.4-21-8.5t-8-42.3q0-30.9 8-44.8t21-16.3m0 17.5q-5 .9-8.1 8.2t-3 32.3c0 25.2 1 27.2 3 31.3q3 6.1 8 5.2 5.2-1 8.2-8.2 3-7.3 3-32.3c0-25-1-27.2-3-31.3q-3-6.2-8.1-5.2m98 55v19.6l-59.9 11q1-11.3 6-22.2 4.8-10.8 19-29.7 11.3-15 14-20 3.8-7.4 3.8-14 0-7.3-3.2-10.3t-8.4-2.2q-11.3 2.1-12.2 19.4l-17 1q1.6-17 9.3-26.3 7.6-9.2 20.4-11.6 14-2.5 21.1 5.3 7.1 8 7.1 19.8 0 6.7-1.8 13.4-1.8 6.6-5.6 13.7t-12.6 18.7q-8.2 10.8-10.4 14.2t-3.5 6.5zm11-11.5 16.5-5.5q.6 7.7 4.2 11.1t8.4 2.6q5.3-1 9-6.5 3.6-5.6 3.6-14.2 0-8-3.5-11.9t-8.5-3q-3.3.6-7.8 3l1.8-17.5q6.7-1 10.5-5.5t3.8-11.2q0-5.7-2.7-8.4t-7-1.9a12 12 0 0 0-7.6 5.1q-3.1 4.3-3.7 11.7l-15.8-.4q2.4-15.5 9.6-23.6 7-8.2 18-10.1 12.1-2.3 19.3 5.1 7.1 7.5 7.1 18 0 7.2-3.2 13.6t-9.7 11.8q7.5.7 12.2 6.7 4.8 6 4.7 16.3 0 15-8.8 26.5-9 11.5-21.2 13.7-11.7 2.2-19.8-4.6t-9.5-20.9"/><path d="m1353.3 2898.9-8.8-13.4c-.4-.7-47.8-71.4-161-141.2a889 889 0 0 0-225.7-97.2c-104.1-29.3-220-44.2-344.4-44.2H417v-10.5c0-100-81.3-181.4-181.3-181.4h-10.5v-476.5a733 733 0 0 1-85.6-122.5c-40.2-71.4-88.2-183.5-88.2-312s48-240.6 88.2-312c37.8-67 75-110.8 85.6-122.5V589h10.5c100 0 181.3-81.4 181.3-181.4v-10.5h196.3c124.4 0 240.3-14.9 344.4-44.2a889 889 0 0 0 225.6-97.2c113.3-69.8 160.7-140.5 161.1-141.2l8.8-13.4 8.8 13.4c.5.7 47.9 71.4 161.1 141.2A889 889 0 0 0 1749 353c104 29.3 220 44.2 344.4 44.2h196.2v10.5c0 100 81.4 181.4 181.4 181.4h10.5v476.5a732 732 0 0 1 85.5 122.5c40.3 71.4 88.3 183.5 88.3 312s-48 240.6-88.3 312c-37.7 67-75 110.8-85.5 122.5V2411h-10.5c-100 0-181.4 81.4-181.4 181.4v10.5h-196.2c-124.4 0-240.3 14.9-344.4 44.2a889 889 0 0 0-225.7 97.2c-113.2 69.8-160.6 140.5-161 141.3zm-915.4-317h175.5c126.7 0 244.8 15.2 351 45.3a909 909 0 0 1 231.3 100c90 55.7 139 111 157.6 134.8 18.6-23.7 67.6-79.1 157.7-134.9a909 909 0 0 1 231.2-100c106.2-30 224.3-45.2 351-45.2h175.6a202.7 202.7 0 0 1 191.6-191.6v-464l2.8-3c.4-.5 43.4-46.9 85.7-122.1 38.9-69.1 85.2-177.5 85.2-301.2s-46.3-232-85.2-301.2a702 702 0 0 0-85.7-122.1l-2.8-3v-464a202.7 202.7 0 0 1-191.6-191.6h-175.5c-126.8 0-244.9-15.2-351.1-45.3a909 909 0 0 1-231.2-100c-90-55.7-139-111-157.7-134.8-18.6 23.7-67.6 79.1-157.6 134.9a909 909 0 0 1-231.2 100C858.2 402.8 740 418 613.4 418H437.9a202.7 202.7 0 0 1-191.6 191.6v464l-2.9 3c-.4.5-43.3 46.9-85.7 122.1C119 1268 72.5 1376.3 72.5 1500s46.4 232 85.2 301.2a702 702 0 0 0 85.7 122.1l2.9 3v464a202.7 202.7 0 0 1 191.6 191.6"/><path d="M2194 606a22 22 0 0 0-5.6-9.5c-18-23-49.5-30.1-77.2-31.3-25.7-1.2-51.8 2-76.8 8-34.8 8.3-67.9 23.7-97 44.7l.3-.3 6.2-8.1 1.6-2.1.4-.6 4-5.4a99 99 0 0 0 19.3-59.6l.1-9.9q.5-4.7-.8-9.3-1.7-4.8-3.8-9.4c-1.8-4-7.6-8-11.7-9q-6.6-1.5-12.7 1c-8.4 3.6-14.5 13.8-11.3 23q1.3 4 2.8 8 1.3 2.9 3 5.5l1.4 5.4a88 88 0 0 1-.2 18.6q-2.1 12.7-6 25l-2 6v.1l-.5 1-2 4q-3.2 6-7 11.7a301 301 0 0 1-24.6 32q1.1-5.2 1.8-10.4c2-16.5-.5-33.1-7.6-48.2a80 80 0 0 0-32.5-33.7l-4.7-2.4c-3-1.4-6.5-3.3-9.9-4a62.6 62.6 0 0 0-42.5 5.3q-5 2.6-9.2 6.5a25 25 0 0 0-7.2 17.4q.2 8.3 5.2 15c3.2 4 7.7 7.6 12.8 8.8l6.6.9q6.6 0 12.4-3.4l1.3-.6-5.9 2.5q4-1.7 8-3.6l5.7-1.6q4.2 0 8.2-.2a51 51 0 0 1 7.3 0l5.9 1.8a47 47 0 0 1 6.1 3.5q3.7 3 6.8 6.9v.1l1.9 2.7 3.4 6 1 2.3.5 1 2.1 6.7 1.4 6.4.4 2.5.2 1.9q.8 6.8.2 13.7l-.2 1.8q0 1.2-.4 2.6l-1.6 7.6q-2.3 9.3-6 18l-3.5 4.6q-.9 1.5.5 2.4l-1 2q-3.6 7.5-7.7 14.9l-4.4 7.6q-2 3.8-3.4 8c-1.1 2.9 2.9 4.3 4.8 2.7q2.3-1.7 4.6-3.8 2.2-2.4 4.1-4.9l7.7-9.8a169 169 0 0 0 10.5-15.8q18.3-20.3 40.6-36a302 302 0 0 1 38.6-23 289 289 0 0 1 15.1-7l.7-.3q1.5-.5 2.9-1.2a303 303 0 0 1 68.5-18.5 248 248 0 0 1 60.5-.3q14.6 2.1 28.4 7.3 7.5 3.4 14.2 8.2 4.5 3.7 8.4 8.1 2.7 3.8 6.6 6l5.2 2.2c6.5 2.2 13.7.2 18.9-3.8q7-5.4 8.1-14.2 1-4.3-.3-8.6M936.8 1265.3l-8 2.4q4-2 8.4-3.2c2.7-.8 1.2-4.8-1.5-3.7-6.5 3-14.2 3.5-21.2 4.5-6.6.8-13.1 2-19.7 2.7l-12.6 1q-6.8-1.4-13.5-3.6l-7.3-2.7-.6-.3-2.5-1.1-4-2a111 111 0 0 1-13.6-8.5l-1.6-1.1-.5-.4c-.8-.6-1.6-1.6-1.9-1.8l-5.5-5.6q-5.3-5.5-10.1-11.3l-.7-.8-2.5-3.6-4.7-7.3a141 141 0 0 1-6.8-13.3q-5.2-13.2-7.4-27.4-.8-7.5-.2-15 .5-2.4.3-4.9-.4-4.2-1.4-8.2a18.6 18.6 0 0 0-31.2-8.2 33 33 0 0 0-6.4 10 41 41 0 0 0-2.4 13.4q-.4 6.4.3 12.8c.7 5.7 1.4 11.5 3 17 1.4 5.5 3.9 10.7 6.2 15.8 6.4 14.2 16 27.1 27.4 37.8a103 103 0 0 0 33.2 21.8l-15.9-1q-10.6-1-21.2-2l-1.3-.3-1.3-.2-4.8-.7-10.6-1.9c-51.2-10-104.9-27-156.6-10.6a104 104 0 0 0-36.6 20 89 89 0 0 0-18.7 23.2l-1.8 3.7-.7 1.6q-3.1 5.4-3.1 11.6 0 3.4 1 6.7a22.7 22.7 0 0 0 37.9 10c5.6-5.4 6.6-13 9-20.1a69 69 0 0 1 5.8-10q6.2-7.4 13.8-13.4a88 88 0 0 1 13.4-8.1l2.7-1.2.7-.4q6-2.3 12-4l8.8-2q.6 0 1.2-.2a174 174 0 0 1 24.6 0l5.3.7 1.3.2q17 2.7 34 6.7 16.8 4.2 33.8 7.7 17.6 3.4 35.5 5c23 2.1 46 .5 68.7-3q14.7-2.3 29-7 23.3-2 44.7-12.6c2-1 .6-4.3-1.6-3.6m-561.1 35.6a65 65 0 0 0-26.7-.7 196 196 0 0 0-26.1 4.6c-16.2 4-32 10.7-46.4 19a151 151 0 0 0-35.8 29.2l7.8-11c11.3-15.8 23.3-31.5 32.6-48.5a187 187 0 0 0 20.8-55.9 129 129 0 0 0-1.3-53.4l-2.3-7.8q-1-3.4-2.6-6.5a21 21 0 0 0-7.7-7c-7.7-4.7-19.6-.4-21.6 8.8-.4 2.1-1 4.2-1 6.4 0 2.8.6 4.6 1.5 7l2.3 6.8q1.6 6 2.7 12 1.5 15.6-.5 31c-2 14-6.1 27.8-11.5 41l-.1.2-1.1 2.6-2 4.4-5 11.2q-4.8 9.8-9.9 19.5c-14 26.7-29.6 52.4-39.5 81-5.4 15.7-9 32-9.5 48.7-.1 2.1 3.5 2.7 3.8.5l.8-4.2a2 2 0 0 0 1.5-1.3 151 151 0 0 1 19.7-38q12.4-17.3 28.9-30.8l3.7-3c.2-.1 1-.6 1.1-.8l2.6-2 8.6-5.7q9.6-5.9 19.8-11.2l10.5-5.2 1.8-.8 1-.4 5.4-2.1a179 179 0 0 1 22.3-6.7l12.8-2.6 3-.5h1l5.7-.7q6.4-.7 13-.7l6.7-.1c3.1-.1 6.1-.9 9.2-1.6a13 13 0 0 0 9.4-12.3 13 13 0 0 0-9.4-12.4m409.8-709.3c2.7-1 1.7-.7.9-.4l-.3.1z"/><path d="M1064.7 498.2c-10.4 3.2-20.6 7-31.1 10.1q-15.3 4.4-30.9 8a1180 1180 0 0 1-64.4 12.6q-32.2 5.6-64.1 12c-19.7 4-39.3 7.3-58.7 12.1a393 393 0 0 0-112.8 44.7 222 222 0 0 0-81.2 84.3 192 192 0 0 0-22.5 86.7c0 10.6 1.6 21.4 4 31.7a39 39 0 0 0 3.9 11.2c1.8 3.2 4.7 6.3 7.2 9a22.2 22.2 0 0 0 24.4 4.6q5.5-2.1 9-6.8c3.3-4.2 4.2-8.2 4.8-13.5l.4-3-.3 1.9c.5-4.1.6-7.7-.5-12.4l-1.2-5q-.8-3.4-1.3-7a160 160 0 0 1-.2-35.1 173 173 0 0 1 10.4-37.4q10.1-22.7 25-42.5 15.8-19.8 36-35.6a302 302 0 0 1 57.5-34l7.4-3.3-.4.1 1-.4.3-.1.8-.4 4.5-1.8 16.7-6.3q16.4-6 33-10.8 17-5 34.3-9.3 18.4-4.5 36.9-8 37.5-7.9 74.5-18.2a498 498 0 0 0 61-21.7q-15.7 12.3-30.9 25.3a280 280 0 0 0-18.4 17c-6.4 6.4-11.9 14-17.3 21.2a233 233 0 0 0-41 94.7 326 326 0 0 0-4.5 32c-.4 4.6-.9 9.4-.6 14l.6 7q.2 3.7.9 7.2.9 3.6 2.8 7c5.4 10.4 23.2 11 28.4 0q1.6-3.2 2.7-6.6c.6-2.4.6-5 1-7.6l.8-7.4-.7 5c1.4-10.3 1.7-20.6 3-31q2.7-19.4 7.9-38.3c3.6-13 7.3-26 12-38.5l1.9-4.6c.5-1.2 2.9-6.5.6-1.6q2.9-6.4 5.3-12.7l.5-1.2a468 468 0 0 1 25.7-49.7c8-13 18.7-24.3 30-34.4q.7-1 .4-2 4.2-2.2 8.3-4.5c3.5-2 1.2-8-2.8-6.7m-508 262 .6-.3.5-.2-1.4.6z"/><path d="M631.3 661.9c-4-10-8.8-18.8-16.1-26.8a77.5 77.5 0 0 0-54.6-23.7 58 58 0 0 0-40.8 15.7c-2.5 2.4-4.8 6-6.5 9.3a24 24 0 0 0 6.1 30.8c4 3.2 9.3 5.4 14.5 5.2q9.7-.5 17-7l1.5-1.3-4.9 3.8 7.2-5.7a39 39 0 0 1 5.1-3 47 47 0 0 1 6.4-1.8 54 54 0 0 1 7.8 0 48 48 0 0 1 6.6 1.8 51 51 0 0 1 6 3.6 58 58 0 0 1 6.6 6.7 56 56 0 0 1 4.6 7.7 73 73 0 0 1 3.6 13.4 83 83 0 0 1 0 17 82 82 0 0 1-4.5 16.2q-1.4 3-3 5.8l-2.1 3.6c-.6.8-2.3 2.6-2.6 3.6L588 738l-3.5 3.7a91 91 0 0 1-6.7 6l-1.6 1.3-4.1 2.9a104 104 0 0 1-8.8 5l-4.2 2.1-1.4.7-.3.1-.2.1-.2.1-.5.2h-.2a129 129 0 0 1-28.3 7.6q-10.5 1.2-20.9 1a148 148 0 0 1-12.8-1c-.6-.2-2-.2-2.5-.3l-3-.5a159 159 0 0 1-20.8-5.2l-10.3-3.7-1.7-.7h-.2l-5.2-2.4q-9.8-4.8-19.3-10.2a172 172 0 0 1-13.3-8.6c-1.3-1-3.5-2-4.5-3.4.2.2 2.2 1.7.6.4l-1-.7a187.8 187.8 0 0 1-28.6-28.7l-.9-1.2-5.2-7.4q-3.4-5-6.4-10.2l-1.2-2.3-2.8-6.4c-1.9-4.2-3.6-8.6-6.5-12.2q-.5-.6-1.1-.6c-2-2.8-7-1.5-6.8 2.1a81 81 0 0 0 6.9 27.9l1.6 3.8a161 161 0 0 0 8.4 16.8l1.4 2.3a156 156 0 0 1 2.3 22.2 251 251 0 0 1-.9 27.6v.4l-.1.5-.2 1.6-1 5.7a331.7 331.7 0 0 1-20.7 74.7q-4.8 11-10.4 21.7l-6.6 11.6q-1.7 3-3.5 5.7-2.5 4.5-3.4 9.4c-1.3 6.2.5 12.4 5.6 16.3 4.5 3.5 12.1 4.8 17.1 1.2q3.7-2.5 7-5.5c2.3-2.4 4-5.7 5.6-8.5l5.8-10.7q6.5-12.6 11-25.8a204.3 204.3 0 0 0 11.5-50.8c2-16.8 1.4-33.5-.8-50.2l-.2-1v-.5l-.4-3.4a346 346 0 0 0-2.9-19.2l-.6-2.9a196 196 0 0 0 39.3 35.4q10.7 6.9 22.4 11.7a178 178 0 0 0 54.4 13.8c37.7 3.3 78.8-7.5 106-34.8 13-13 22.5-29.3 26.4-47.3a93 93 0 0 0-3.4-53.4m1240.4 1735.8a85 85 0 0 0-22.5-27.7c-5.4-4.2-11.1-9.2-17.8-11l-3.2-1.4a148 148 0 0 0-57.2-12.5c-18.5-1-36.8.6-55.2 1.9-47 3.2-94.1 10-140.5 18.5-45.6 8.4-90.7 19-135.7 29.5-45.1 10.5-90 21.8-135.2 32.1a1788 1788 0 0 1-150 29 747 747 0 0 1-53.4 4.5c-18.2 1-36.4 1.7-54.6-.5-11.5-1.8-22.9-4.4-33.7-8.9l4.6 2-9.3-3.7-4.7-2.1-2.9-1.5q-2-1.2-4.3-2c-2.9-1.4-5.9-3.1-8.8-4l-.5-.1-2-1-.6-.2a7 7 0 0 0-3-1.8q-3.4-1.4.1 0c0-.3-1.3-.8-1.6-1l-1.6-1-.2-.2a11 11 0 0 0-12.4-2.2h-.3q-1.7.1-2.6 1.5c-.4.6-1.7 2-.4.7a11 11 0 0 0-1.7 13.5c1.1 2 1.8 4.1 3 6l.1.2a7 7 0 0 0 1.8 3q1.8 2.4.4.6c-1.3-1.4-.3-.3 0 .3l1 1.6q4.5 7.1 10.3 13l-.3-.4c3.7 4.2 9.1 7.6 13.8 10.5a128.6 128.6 0 0 0 46.9 15.7c23.2 3 46.4 1.7 69.6-1.2q26.4-3.5 52.9-7.8 25 2.2 49.7 7.6 14 3 27.7 7.7l11.1 4.2 1.5.6.3.1.9.4 1 .5 5.8 2.6a168 168 0 0 1 29.9 18.6l.6.5 2.2 1.7 4.4 3.8q5 4.5 9.2 9.6l4 4.8.6.6 1.8 2.4a113 113 0 0 1 18.8 46.5c.9 8.7.5 17.5-.4 26.3q-1.3 8.4-4.3 16.3a72 72 0 0 1-5.7 10 58 58 0 0 1-8 7.5l1.4-1.1c-2.4 2-4.5 4-6.4 7l-1.3 2-2.5 4a21.3 21.3 0 0 0 18.4 32.1q6.5.2 12.9-1.4a39 39 0 0 0 16.7-10.7c5.3-5 10-11 13.8-17.2 8-13 11.5-27.9 13.1-43a93 93 0 0 0-5-39q-3.5-10.7-9-20.4-5.9-10-13.4-18.8a224.5 224.5 0 0 0-62.4-48.4 252 252 0 0 0-82.6-25l12.8-2.4q25 .6 49.7 5c42.2 7.5 82.7 21.7 122.7 37 40.3 15.4 80.8 31.3 123.2 40.2 37.3 7.9 75.8 9.3 113.3 1.5a232 232 0 0 0 103.5-51.8l10.3-7.8-4.6 3.6c3.8-2 7.3-5.5 9.3-9.3 2-4 2.8-7.6 3.2-12.2l.3-4.3c.4-7-4-13.9-10-17.3-6.4-3.8-13.5-3.2-20.1 0-2.6 1.3-5 2.3-7.3 4-2.6 2.2-2.6 2-4.6 4.8a28 28 0 0 0-4.2 8.2l-.4 1-1.2 2.7-1.6 2.5q-8.9 11.3-20 20.3a141 141 0 0 1-27 15.3 228 228 0 0 1-90.4 16.3 263 263 0 0 1-18.6-1l-11.5-1.1-5.7-.8h-.3q-1.9-.1-3.8-.5a626 626 0 0 1-92.2-22.4c-54.3-16.7-108.1-36.7-164.6-43.5q51.3-11.2 102.1-24.3c42.4-10.6 84.6-22.1 127.1-31.7a1731 1731 0 0 1 141.6-26.4 836 836 0 0 1 48.1-5c16.3-1.1 32.7-2.4 49-2q10.5.3 21 1.3l-4.9-.7 7.2 1q20.2 2.7 39.2 10 7.1 3 13.3 7.5l8.1 6.3-5-3.8a73 73 0 0 1 11 10.3q3.3 5 5.9 10.4c2.6 5.3 9.3 9.9 14.9 11.4 6 1.7 13.9 1 19.2-2.5 5.3-3.4 10-8.5 11.4-14.9 1.6-6.8.6-12.9-2.5-19.2"/><path d="M977.9 2434.6c-1.7-1.6-.7-.6 0 0m-132.2-47.2c-.2-27.5-1.2-55-2-82.5l-1.2-23.1-.7-11.6c-.3-4.4-1.7-8.6-3.1-12.8-1.3-3.8-5.3-6-9.2-4.4a6 6 0 0 0-3.8 4.4q-2 4.8-3 9.7c-.8 4-.9 8-1.2 12q-1 10.3-1.7 20.5l-2.2 41.5q-.9 14.6-1.4 29a100 100 0 0 0-24.6-26.4 84.5 84.5 0 0 0-47.9-14.7 119 119 0 0 0-40.8 0c-31.8 5-60.2 21.4-89.2 34.4l-6 2.7-2.8 1.1-1.6.7a141 141 0 0 1-36 9.9q-15 1.8-29.7.2-6.7-1-13.5-3.2l-7.5-2.6-3.8-1.4c-6.6-2.6-15-1.7-21 1.8a24.3 24.3 0 0 0-4.6 38.7c3.9 3.9 8.7 5.8 13.7 7.5a78 78 0 0 0 21.7 3.3c12.6.4 25.6-1.6 37.7-5.3s23.5-9.3 34.8-15c38.8-19.8 72.8-51.3 115.6-61.4q-4.4 3.4-7.8 7.7a60.2 60.2 0 0 0-13.6 33.8 53.5 53.5 0 0 0 35.2 54.5 40 40 0 0 0 8.4 2.3q3.4.7 6.9 1a35 35 0 0 0 12.1-2c10.3-3.6 17-12.9 15.6-24-.6-4.5-2.5-9.3-6-12.5l-4.4-3.4q-4.4-2.5-9.3-2.8l-4.2-.7-4.2-.5-5.5-1.4-3-1.8-2.5-2.4-1.8-3.1-1.1-4.2a44 44 0 0 1 0-6.4q.8-4 2.2-7.8 1.4-3 3-5.7l.9-1.3.8-1.3.5-.7-.4.6 1.8-2 2.7-2.4 1.7-1.2 4-2.3 2-1 1.3-.4a64 64 0 0 1 9.6-2.5l2-.2h5.5c5.3.4 11.4 2.3 16.7 4.9 19.3 9.5 30 29 35.3 49.2l-.7 23.2q-.3 11.6 0 23.1.1 5.8.6 11.6.1 2.9.5 5.8l.7 4.7.3 2.3c0 6.5 6.8 12.6 13.1 12.3 3.4-.1 6.9-1.2 9.2-3.8 2.5-2.7 3.4-5.6 3.9-9.2-.5 3.5.5-1.7.7-2.6q.6-4 1-8 .5-5.2.8-10.4c.3-6.9.9-13.7.8-20.5z"/><path d="m732.4 2358.4-.8 1.3 1-1.4zm815.7-1939.2c-2-6.3-5.8-10.8-11.3-14.7q-7.5-5.2-15.9-8.8c-7.2-3.1-14.3-6-22-7.8a181 181 0 0 0-39.6-4.9c-25.5-.2-51.1 3.1-76.1 8-26.5 5-52.5 12.4-78.7 18.6l-24.6 6q9.5-5.8 18.6-12.1c16.3-11.2 31-24.6 42.6-40.6 8.3-11.5 14.1-26.5 9-40.6-4-11.2-12.7-20.7-25-22.4a24 24 0 0 0-22.5 8.8 21 21 0 0 0-3.9 7.6c-.7 3-1 7 0 10a27 27 0 0 0 2.1 4.8v.1a24 24 0 0 0 6.2 6.9l-1.5-1.2 4 3.1.4.3-.3-.2 2.9 1.9 1 .6v1.5l-.8 2.7q-4.2 9-9.5 17.1l-5.6 8.2c-.2.2-1.2 2-1.5 2l1-1.3-1 1.3-3.5 4.2a132 132 0 0 1-14.3 14.7l-7.8 6.4-.3.2-.4.4-2 1.5-4.9 3.4a270 270 0 0 1-57 29.7q-16 4.3-32 8.9l-23.5 7c-7.6 2.3-15.5 4.3-22.6 7.7h-.2c-1.7 1-1 4 1 3.8 5.3-.6 10.3-2 15.5-3.4l1.3-.3h.2l15.7-2.9q15.5-2.9 31-6.5 17.4-4.2 34.6-9.8 14-3.1 28-5.6c41-7.2 81.3-12.8 122.8-15.4 19.9-1.2 40-1.5 59.8.7q22.3 3.5 43.5 11.7a238 238 0 0 1 31 16.5c5.2 3.4 13 4.2 18.9 2.5 5.7-1.5 11.9-6 14.7-11.3 3-5.7 4.5-12.6 2.5-19"/></svg>