<?xml version="1.0" encoding="UTF-8"?>
<svg id="a" data-name="Layer 1" xmlns="http://www.w3.org/2000/svg" width="2706.644" height="3000" viewBox="0 0 2706.644 3000">
  <g>
    <path d="M1300.72,2914.518c-2.898-4.149-47.882-67.02-150.653-129.043-62.299-37.597-133.404-67.584-211.341-89.129-98.222-27.153-207.685-40.921-325.347-40.921h-248.775v-63.041c0-71.042-57.797-128.838-128.838-128.838h-63.041v-509.707C125.767,1896.615-1.051,1721.545-1.051,1500s126.818-396.616,173.776-453.841v-509.707h63.041c71.041,0,128.838-57.797,128.838-128.838v-63.041h248.775c117.663,0,227.125-13.768,325.347-40.921,77.937-21.545,149.043-51.533,211.341-89.129,103.03-62.177,147.982-125.208,150.674-129.071L1353.817,1.971l52.121,83.512c2.898,4.148,47.882,67.02,150.651,129.041,62.298,37.597,133.401,67.584,211.336,89.129,98.22,27.153,207.682,40.921,325.341,40.921h248.775v63.041c0,71.041,57.796,128.838,128.838,128.838h63.041v509.707c46.956,57.225,173.775,232.296,173.775,453.841s-126.818,396.615-173.775,453.84v509.707h-63.041c-71.042,0-128.838,57.796-128.838,128.838v63.041h-248.775c-117.66,0-227.121,13.768-325.341,40.921-77.935,21.545-149.038,51.533-211.336,89.129-103.088,62.214-148.031,125.281-150.676,129.078l-53.074,83.476-52.12-83.511Z" fill="#fff"/>
    <path d="M1352.832,3000l-52.987-84.904c-2.097-2.994-47.33-66.566-150.321-128.723-62.218-37.547-133.235-67.496-211.078-89.016-98.132-27.127-207.499-40.882-325.068-40.882h-249.826v-64.091c0-70.461-57.326-127.787-127.787-127.787h-64.091v-510.382c-22.897-27.939-66.675-86.308-104.393-165.221C21.241,1692.67-2.101,1595.439-2.101,1500s23.343-192.671,69.382-288.993c37.718-78.916,81.495-137.285,104.393-165.223v-510.382h64.091c70.461,0,127.787-57.325,127.787-127.787v-64.091h249.826c117.569,0,226.936-13.755,325.068-40.883,77.843-21.519,148.86-51.469,211.078-89.016,103.414-62.408,148.488-126.092,150.356-128.772L1353.825,0l53.004,84.926c1.845,2.638,47.063,66.393,150.305,128.697,62.216,37.547,133.231,67.497,211.072,89.016,98.128,27.128,207.495,40.883,325.062,40.883h249.826v64.091c0,70.462,57.326,127.787,127.787,127.787h64.091v510.382c22.897,27.938,66.675,86.308,104.393,165.223,46.039,96.322,69.382,193.554,69.382,288.993s-23.343,192.67-69.382,288.994c-37.718,78.914-81.495,137.282-104.393,165.221v510.382h-64.091c-70.461,0-127.787,57.326-127.787,127.787v64.091h-249.826c-117.567,0-226.934,13.755-325.062,40.882-77.841,21.52-148.856,51.469-211.072,89.016-103.434,62.423-148.491,126.1-150.358,128.78l-53.944,84.846ZM365.653,2654.374h247.724c117.758,0,227.316,13.78,325.626,40.958,78.029,21.572,149.223,51.596,211.607,89.244,103.638,62.546,149.088,126.642,150.972,129.34l.029.045,51.237,82.095,52.179-82.068c1.902-2.731,47.207-66.761,151.019-129.412,62.382-37.648,133.574-67.672,211.601-89.244,98.31-27.178,207.864-40.958,325.62-40.958h247.724v-61.99c0-71.621,58.268-129.888,129.888-129.888h61.99v-509.032l.238-.291c22.77-27.749,66.607-86.096,104.36-165.086,45.902-96.037,69.177-192.964,69.177-288.087s-23.275-192.05-69.177-288.087c-37.753-78.991-81.59-137.338-104.36-165.088l-.238-.29v-509.032h-61.99c-71.621,0-129.888-58.268-129.888-129.888v-61.99h-247.724c-117.756,0-227.31-13.781-325.62-40.959-78.027-21.571-149.219-51.596-211.601-89.242-103.617-62.533-149.084-126.641-150.969-129.338l-51.268-82.143-52.181,82.074c-1.902,2.731-47.225,66.77-151.017,129.407-62.384,37.646-133.578,67.671-211.607,89.242-98.31,27.178-207.868,40.959-325.626,40.959h-247.724v61.99c0,71.621-58.268,129.888-129.888,129.888h-61.99v509.032l-.238.29c-22.77,27.75-66.607,86.097-104.36,165.088C23.275,1307.95,0,1404.876,0,1500s23.275,192.051,69.177,288.087c37.753,78.99,81.59,137.337,104.36,165.086l.238.291v509.032h61.99c71.621,0,129.888,58.268,129.888,129.888v61.99Z" fill="#231f20"/>
  </g>
  <g>
    <path d="M1763.293,1043.502c-19.076-1.445-35.607,11.76-49.369,23.272-117.392,98.199-168.842,393.571-188.858,544.026-5.588,42-12.243,120.444-1.89,160.042,10.737,41.068,44.477,15.435,63.202-5.567,66.882-75.015,34.709-200.884,120.647-273.994,84.894-72.222,175.236,4.841,118.608,102.144-18.585,31.935-45.856,51.354-78.996,66.26-16.583,7.459-34.575,5.046-41.698,26.821-15.155,46.329,17.533,69.235,60.063,49.089,81.212-38.469,120.67-179.769,156.628-254.462,9.217-19.145,13.117-29.314,34.892-36.365,33.611-10.882,76.386-15.873,112.008-25.033,23.464-6.034,68.692-25.059,88.709-26.629,26.019-2.042,36.376,24.396,21.972,44.116-41.93,71.412-115.493,138.237-156.822,207.681-5.875,9.872-13.028,21.421-9.309,33.487,3.887,12.609,68.393,30.879,82.4,28.674,53.446-8.414,93.14-123.578,110.994-168.592,14.889-37.54,26.551-82.034,44.075-117.617,7.202-14.624,17.599-32.061,34.004-37.479,17.913-5.915,52.638-7.118,73.422-11.318,37.018-7.482,64.672-15.078,97.767-33.79,15.372-8.691,24.673-26.672,45.429-16.319,10.95,5.462,15.852,19.987,10.363,30.977-41.129,63.958-89.671,124.436-127.355,190.575-6.826,11.981-16.939,24.804-15.569,39.528,1.274,13.695,33.133,2.047,42.651,1.248,154.318-12.961,137.921,167.02,36.875,231.44-118.331,75.441-308.32,107.532-446.037,132.271-300.661,54.009-604.43,87.242-905.92,135.6-105.697,16.953-232.551,15.214-312.999,84.142-19.546,16.748-37.893,50.44-53.571,61.536-39.047,27.635-61.347-19.498-41.002-57.437,54.116-100.912,168.769-102.192,270.932-120.721,386.027-70.01,779.26-102.666,1163.176-185.317,71.402-15.372,149.001-32.914,216.693-60.127,48.03-19.309,141.248-63.627,133.373-126.502-9.04-72.18-121.572-22.398-159.71-3.966-9.347,4.517-36.781,23.268-41.65,24.157-39.211,7.162-10.246-56.607-1.69-72.97,31.864-60.944,79.203-119.459,114.203-179.067,5.904-14.357,4.758-25.716-13.595-24.665-49.733,2.847-77.442,18.167-98.679,63.16-36.938,78.257-77.8,264.015-183.763,271.154-45.587,3.071-75.653-27.943-125.34-21.158-14.89,2.033-37.973,19.194-48.627,8.823-14.26-13.882,5.159-46.555,14.122-59.763,43.547-64.167,107.29-123.549,150.411-189.407,6.749-10.833,5.218-25.226-9.352-26.1-48.437,15.346-76.331-.035-104.571,49.198-35.482,61.86-52.617,123.689-98.858,183.422-48.35,62.458-142.372,138.868-208.074,52.355-19.421,31.536-37.605,63.47-70.118,83.305-60.739,37.053-112.844,10.324-129.993-55.93-4.921-19.011-2.127-47.109-21.423-57.185-9.945.936-43.212,52.737-53.854,64.085-26.771,28.549-67.784,59.17-108.886,42.951-9.498-3.748-24.872-17.921-34.428-16.528-18.242,2.659-37.511,36.104-52.814,48.784-37.427,31.01-85.716,34.67-108.708-14.469-7.303-15.607-7.437-30.459-11.827-45.723-2.775-9.648-7.335-22.876-19.362-13.895-7.45,5.563-26.356,36.622-35.401,46.803-25.857,29.105-75.898,77.488-112.501,35.671-40.725-46.525.107-168.057,28.395-215.677,29.238-49.221,88.615-104.268,150.61-83.873,6.124,2.015,21.174,11.311,23.416,11.198,13.369-.673,18.867-21.146,27.795-29.726,19.498-18.738,47.754-12.817,44.744,17.127-2.716,27.021-24.007,77.645-30.963,109.008-8.778,39.572-21.232,100.547-13.811,139.931,5.776,30.653,32.389,2.154,44.024-11.069,46.845-53.241,54.727-145.345,85.788-210.192,29.801-62.216,90.735-125.651,166.109-115.718,18.906,2.491,37.468,23.731,52.194,5.134,51.6-244.634,74.67-336.932,163.288-438.053,33.513-38.242,124.657-104.605,166.803-43.31,42.914,62.412-34.621,168.26-91.797,195.031-39.076,18.297-62.776-20.334-25.361-50.017,20.25-16.065,32.376-16.486,50.248-40.195,15.019-19.924,26.372-42.645,23.52-68.299ZM1773.409,1521.877c-16.742,3.274-37.951,29.979-46.37,44.222-6.777,11.464-25.63,44.299-7.834,52.686,29.583-9.838,67.086-42.114,71.105-74.384,1.764-14.166.138-25.857-16.9-22.525ZM1414.503,1541.144c-79.63,4.415-134.03,151.85-124.842,219.28,3.285,24.109,8.068,29.719,30.879,18.584,48.836-23.838,121.208-162.356,119.316-215.269-.658-18.405-6.138-23.661-25.353-22.596ZM940.876,1833.738c5.564,6.365,41.415-36.92,44.927-41.376,21.568-27.367,42.864-63.12,59.684-93.79,7.468-13.616,31.75-51.282,25.551-64.798-6.125-13.355-15.322-10.62-25.962-6.838-64.696,22.996-105.6,143.278-104.2,206.801Z"/>
    <path d="M1809.225,431.637c16.903,17.269,5.09,44.58-7.333,60.641-34.424,44.505-66.187,56.002-119.273,69.149-40.569,10.047-93.239,4.543-107.07,51.894-29.296,133.969-76.843,265.49-100.944,400.569-5.277,29.573-15.515,94.662-5.005,121.109,14.429,36.31,53.705,32.218,37.34,64.948-13.705,27.411-72.824,5.728-92.276-31.945-32.415-62.778,9.018-215.087,26.399-283.563,20.21-79.626,53.009-164.331,70.235-242.187,3.714-16.785,8.108-44.078-13.079-51.247-8.703-2.945-68.71,7.788-82.543,10.454-30.566,5.891-76.372,15.715-102.801,31.497-24.062,14.369-36.847,44.232-70.761,47.14-18.581,1.593-39.879-6.07-38.204-27.852,2.319-30.167,51.404-23.952,58.146-56.39,7.851-37.77-42.062-26.883-63.44-16.849-48.415,22.724-130.571,134.575-99.968,186.968,10.174,17.418,25.628,12.066,43.595,8.788,18.468-3.369,55.969-21.089,69.526-20.503,15.472.669,23.401,13.578,20.236,27.954-2.995,13.601-36.48,30.273-48.503,39.281-59.969,44.929-110.559,93.372-146.997,159.956-26.171,47.822-70.861,172.487,4.172,195.996,80.349,25.174,167.764-77.698,203.295-139.289,11.157-19.341,33.401-82.465,51.452-88.301,17.358-5.612,24.624,6.014,25.085,22.049,1.942,67.499-20.799,169.288-54.61,227.936-89.281,154.866-240.358,197.679-442.408,223.005-45.321,5.681-45.213,12.348-59.333,53.034-10.586,30.503-18.835,64.784-27.14,96.183-12.581,47.565-39.007,133.83-42.95,179.26-.504,5.803-.367,17.681,4.935,20.086,17.752,8.052,64.286-.178,83.732-5.655,16.757-4.72,81.518-38.009,79.334,2.982-2.129,39.959-85.859,50.613-115.703,53.83-18.032,1.943-53.848-3.937-65.57,11.174-17.608,22.698-43.577,156.771-54.409,194.978-26.42,93.187-74.646,280.569-192.494,289.843-149.56,11.77-157.095-218.415-65.684-293.116,17.44-14.252,50.774-28.629,70.576-11.145,25.524,22.536-22.576,47.722-34.806,60.611-33.299,35.093-45.561,119.795-18.688,160.793,19.818,30.234,54.373,29.046,81.527,8.911,66.129-49.035,122.693-273.448,137.077-356.222,2.021-11.632,9.756-44.884-.226-51.894-18.457-12.961-73.641,15.012-90.876,26.578-7.427,4.984-33.307,29.801-35.577,30.365-21.058,5.235-12.751-29.631-7.643-40.691,13.348-28.902,46.674-50.521,75.995-61.041,20.699-7.427,51.633-8.072,67.16-15.065,8.268-3.724,14.5-14.396,19.428-21.682,18.439-63.075,33.491-127.11,50.608-190.558,8.726-32.345,22.674-63.441,24.32-96.925.692-14.08-10.618-25.849-24.71-25.481-67.696,1.771-255.875,32.434-268.488,36.21-47.865,14.327-104.6,41.785-127.57,88.945-12.197,25.042-17.692,66.463,12.287,81.086,14.322,6.986,16.008,1.486,28.886,1.056,43.294-1.444,36.011,47.468,1.409,59.092-51.814,17.406-107.523-32.08-114.397-82.914-15.932-117.831,101.894-180.896,199.351-202.107,207.697-45.203,648.294-24.139,786.869-217.444,5.336-7.444,34.951-51.326,29.064-57.237-2.128-.059-4.333-.306-6.42.4-3.997,1.352-35.781,34.127-44.326,40.639-134.977,102.858-272.79,23.899-226.789-147.276,14.308-53.243,46.63-106.47,81.535-148.675,10.024-12.12,62.684-63.007,63.975-70.449,2.422-13.957-21.902-17.672-32.264-26.947-58.48-52.349-4.904-161.768,36.812-209.529,45.813-52.453,145.754-108.178,201.482-39.692,4.146,5.096,6.31,14.605,8.914,17.12,13.915,13.443,49.644-5.216,67.255-9.495,105.235-25.569,304.528-10.419,371.358-93.89,8.007-10,13.475-28.23,26.67-33.616,9.987-4.076,23.504-3.544,31.239,4.359Z"/>
    <path d="M2287.787,1252.809c-57.98,27.404-109.374,63.339-169.26,86.999-46.846,18.508-104.17,37.394-153.607,46.471-20.035,3.679-54.917,16.402-58.17-11.471-7.352-62.98,1.579-151.54,2.905-216.431,1.106-54.084-1.819-110.852,2.671-164.495,4.067-48.59,41.529-52.747,82.119-60.397,77.021-14.516,167.395-17.392,244.986-6.395,17.196,2.437,64.622,9.424,74.923,22.32,11.79,14.759,10.814,99.02,11.693,121.274,2.601,65.894,8.981,151.642,2.96,216.485-3.567,38.41-41.22,27.692-41.22,19.077v-53.438ZM1956.138,1074.682v76.732l298.759-169.879c-35.663-3.715-71.744-8.921-107.646-7.631l-191.112,100.779ZM1958.879,1256.919v67.14c4.985.44,8.693-2.93,12.765-5.051,74.991-39.073,148.18-89.466,223.852-129.7,30.265-16.092,61.622-30.412,92.52-45.152-6.304-19.328-.405-40.529-2.964-59.933-.5-3.788,1.504-4.77-4.034-3.997l-322.138,176.693Z"/>
    <path d="M2319.918,2131.718c-7.215,7.08-57.541,18.51-70.473,21.345-88.329,19.362-193.76,25.506-282.369,5.477-26.032-5.884-57.387-12.417-60.412-43.735-1.524-15.783-1.897-58.689.787-73.48,2.617-14.421,20.431-30.726,35.626-28.918,22.909,2.725,13.8,21.318,15.797,36.541.42,3.2-1.133,5.471,4.02,3.984,14.117-4.074,45.637-28.569,61.708-36.978,52.05-27.234,101.722-31.381,157.446-45.373,26.506-6.655,111.521-36.548,131.721-32.605,7.724,1.507,14.294,10.187,15.278,17.603,3.443,25.961,2.69,140.76-3.638,163.836-.872,3.181-3.406,10.258-5.491,12.304ZM2287.787,2055.749v-73.991l-243.941,134.253c25.681,2.744,52.278,4.336,78.229,2.881,59.882-3.359,91.032-30.049,142.802-54.534,7.231-3.42,15.233-6.354,22.909-8.609Z"/>
    <path d="M2299.364,846.612c15.697,3.388,61.835,21.977,64.742,38.273,1.831,10.264-6.945,21.832-17.525,22.526-10.777.707-51.213-14.833-66.498-18.226-94.577-21-202.359-14.193-296.566,5.97-20.052,4.292-93.448,28.382-106.881,21.948-3.689-1.767-7.91-9.756-8.181-13.894-1.48-22.597,45.64-34.922,61.77-42.153,8.571-65.537,35.894-114.586,99.238-139.195,81.4-31.625,179.848-30.605,239.202,41.721,20.845,25.4,26.704,50.963,30.699,83.031ZM2254.646,841.54c9.398-37.026-28.309-72.124-58.17-87.996-36.408-19.353-82.764-22.777-122.483-13.165-1.02,6.026.506,5.464,5.362,6.821,12.99,3.63,33.604,2.073,49.556,5.386,26.981,5.603,70.892,27.404,86.111,50.925,6.922,10.698,6.054,23.552,12.366,34.224l27.258,3.804Z"/>
    <path d="M1933.597,2242.713c-15.697-3.388-61.835-21.977-64.742-38.273-1.831-10.264,6.945-21.832,17.525-22.526,10.777-.707,51.213,14.833,66.498,18.226,94.352,20.95,202.579,14.27,296.566-5.97,20.261-4.363,93.073-28.562,106.881-21.948,3.689,1.767,7.91,9.756,8.181,13.894,1.48,22.597-45.64,34.922-61.77,42.153-8.371,65.208-36.302,114.744-99.238,139.195-81.4,31.625-179.848,30.605-239.202-41.721-20.845-25.4-26.704-50.963-30.699-83.031ZM2158.954,2343.533c-1.97-2.099-47.115-5.119-57.115-7.324-26.24-5.787-69.076-27.484-83.9-50.395-6.922-10.698-6.054-23.552-12.366-34.224l-27.258-3.804c-9.297,37.992,29.117,73.182,59.934,88.972,32.344,16.572,74.791,21.198,110.357,14.118,2.554-.508,15.402-1.958,10.348-7.343Z"/>
    <path d="M759.574,735.592c5.31-1.728,8.8,2.569,10.563,7.01,5.994,15.093,6.966,42.377,12.907,60.535,8.41,25.704,22.5,47.538,45.895,61.585,5.75,3.453,20.387,6.534,20.993,13.227.858,9.48-17.893,12.899-24.608,16.598-33.498,18.451-41.306,59.263-45.133,94.589-1.921,17.73.328,46.908-4.186,62.089-1.498,5.037-7.592,6.431-11.443,3.24-3.884-3.218-6.737-43.874-8.18-52.716-5.639-34.547-11.678-91.869-50.26-103.792-9.07-2.803-30.865-1.342-23.807-15.629,1.371-2.774,25.764-12.804,32.221-17.945,20.997-16.72,32.972-63.066,38.031-89.151,2.262-11.662,2.178-24.329,4.115-35.293.353-1.996.71-3.637,2.892-4.347Z"/>
    <path d="M461.245,1084.37c-2.847-2.793-8.935-6.614-12.749-8.016-9.449-3.475-24.101,2.666-21.576-11.623.821-4.644,15.54-16.42,19.668-21.967,13.415-18.024,19.443-42.146,24.413-63.696,1.708-7.406,8.107-47.699,9.95-49.887,11.167-13.253,13.548,29.79,14.666,35.213,6.872,33.338,16.653,65.629,47.147,84.186,5.403,3.288,13.617,2.013,12.232,11.015-.912,5.93-11.426,8.932-15.844,12.546-27.669,22.633-32.532,65.14-35.731,98.925-.885,9.349,3.505,38.422-12.984,22.923-3.899-29.743-6.97-87.814-29.191-109.62Z"/>
    <path d="M1765.303,779.049c-.515.886-14.004,8.519-16.958,11.502-5.331,5.384-10.898,15.422-13.788,22.466-3.4,8.288-6.708,29.28-10.202,34.234-2.201,3.12-6.448,3.013-9.389,1.043-11.695-7.835-4.293-46.998-32.668-58.911-5.693-2.39-15.239-.37-15.216-9.122.019-7.395,11.01-10.203,16.535-14.723,8.967-7.335,14.122-17.701,18.212-28.401,3.318-8.681,5.75-27.064,8.575-32.419,2.789-5.287,8.975-1.77,11.114,2.306,7.721,14.714,4.796,30.782,19.917,45.675,6.679,6.578,30.204,15.459,23.87,26.349Z"/>
  </g>
  <g>
    <path d="M1090.853,2340.363v-109.648l66.129-12.132v18.549l-48.188,8.84v24.307l44.781-8.217v18.473l-44.781,8.217v29.768l49.819-9.14v18.549l-67.761,12.434Z"/>
    <path d="M1169.291,2290.219l17.57-5.319c1.976,13.651,8.451,19.468,19.423,17.455,5.436-.997,9.713-3.218,12.826-6.653,3.113-3.437,4.671-7.275,4.671-11.512,0-2.491-.546-4.508-1.631-6.054-1.088-1.545-2.744-2.674-4.968-3.388-2.224-.712-7.611-1.603-16.16-2.674-7.663-.934-13.271-2.442-16.829-4.529s-6.388-5.167-8.488-9.241c-2.101-4.075-3.152-8.676-3.152-13.809,0-5.978,1.346-11.607,4.039-16.885,2.694-5.274,6.415-9.571,11.159-12.881,4.744-3.312,10.601-5.608,17.57-6.887,10.476-1.923,18.658-.554,24.539,4.098,5.881,4.656,8.994,12.288,9.341,22.893l-18.013,4.277c-.792-5.738-2.497-9.538-5.118-11.399-2.618-1.863-6.349-2.35-11.194-1.461-4.843.889-8.576,2.592-11.194,5.108-2.618,2.52-3.93,5.296-3.93,8.327,0,2.984,1.19,5.276,3.567,6.877,2.378,1.601,7.843,2.842,16.39,3.716,9.042.985,15.578,2.567,19.604,4.744,4.024,2.179,7.1,5.377,9.222,9.6,2.126,4.221,3.189,9.62,3.189,16.201,0,9.522-2.906,18.056-8.713,25.602-5.805,7.548-14.888,12.452-27.244,14.72-21.847,4.01-34.003-6.3-36.474-30.927Z"/>
    <path d="M1276.937,2306.22v-91.097l-26.468,4.855v-18.549l70.802-12.992v18.551l-26.392,4.841v91.097l-17.942,3.294Z"/>
    <path d="M1319.046,2298.491v-21.014l17.051-3.129v21.016l-17.051,3.127Z"/>
    <path d="M1442.334,2256.349v19.522l-59.901,10.991c.64-7.492,2.604-14.863,5.894-22.118,3.285-7.256,9.674-17.158,19.163-29.708,7.513-9.998,12.134-16.675,13.864-20.033,2.569-4.907,3.856-9.602,3.856-14.086,0-4.781-1.065-8.2-3.187-10.25-2.128-2.052-4.919-2.76-8.379-2.126-7.562,1.387-11.642,7.847-12.233,19.372l-16.979,1.022c1.04-11.36,4.117-20.127,9.23-26.3,5.118-6.175,11.925-10.041,20.425-11.601,9.341-1.716,16.386.057,21.131,5.315,4.744,5.258,7.117,11.847,7.117,19.768,0,4.484-.607,8.943-1.816,13.374-1.213,4.433-3.078,9.009-5.596,13.733-2.522,4.72-6.725,10.934-12.606,18.639-5.485,7.234-8.957,11.982-10.414,14.242-1.459,2.259-2.633,4.418-3.521,6.474l33.954-6.23Z"/>
    <path d="M1482.74,2158.437c8.646-1.586,15.641,1.281,20.979,8.594,5.338,7.32,8.007,21.34,8.007,42.07s-2.67,35.655-8.007,44.931c-5.338,9.278-12.306,14.703-20.907,16.281-8.65,1.586-15.643-1.242-20.979-8.485-5.34-7.24-8.007-21.35-8.007-42.327,0-20.579,2.668-35.506,8.007-44.785,5.335-9.273,12.306-14.701,20.907-16.279ZM1482.775,2175.857c-3.372.62-6.062,3.355-8.071,8.206-2.009,4.851-3.012,15.645-3.012,32.382s1.003,27.151,3.012,31.243c2.009,4.088,4.699,5.824,8.071,5.204,3.421-.628,6.123-3.365,8.108-8.213,1.982-4.845,2.976-15.614,2.976-32.302s-.993-27.164-2.976-31.284c-1.984-4.119-4.687-5.865-8.108-5.237Z"/>
    <path d="M1580.823,2230.94v19.52l-59.903,10.991c.642-7.49,2.606-14.861,5.894-22.118,3.285-7.254,9.674-17.156,19.163-29.708,7.513-9.998,12.134-16.675,13.864-20.031,2.569-4.907,3.856-9.602,3.856-14.086,0-4.781-1.063-8.2-3.187-10.25-2.128-2.052-4.919-2.76-8.379-2.126-7.56,1.387-11.64,7.847-12.231,19.37l-16.979,1.024c1.038-11.36,4.114-20.127,9.23-26.302,5.116-6.173,11.925-10.041,20.423-11.601,9.341-1.714,16.386.057,21.133,5.317,4.742,5.258,7.117,11.845,7.117,19.766,0,4.486-.607,8.945-1.818,13.376-1.213,4.431-3.078,9.009-5.596,13.731-2.522,4.722-6.723,10.936-12.604,18.639-5.487,7.236-8.96,11.982-10.417,14.244-1.459,2.259-2.631,4.418-3.521,6.474l33.956-6.23Z"/>
    <path d="M1591.72,2219.442l16.534-5.502c.445,5.079,1.857,8.767,4.238,11.059,2.38,2.294,5.18,3.144,8.401,2.553,3.519-.646,6.493-2.811,8.923-6.499,2.428-3.686,3.642-8.397,3.642-14.131,0-5.335-1.166-9.308-3.497-11.923-2.331-2.614-5.159-3.618-8.483-3.008-2.181.402-4.788,1.404-7.812,3.006l1.851-17.468c4.422-.712,7.925-2.547,10.509-5.508,2.532-2.951,3.801-6.69,3.801-11.215,0-3.778-.917-6.567-2.754-8.368-1.835-1.802-4.188-2.438-7.065-1.911-2.879.527-5.368,2.22-7.478,5.075-2.108,2.854-3.361,6.737-3.757,11.648l-15.791-.394c1.633-10.324,4.827-18.188,9.577-23.597,4.751-5.409,10.739-8.777,17.966-10.103,8.116-1.49,14.562.242,19.337,5.19,4.777,4.95,7.166,10.958,7.166,18.028,0,4.779-1.075,9.284-3.226,13.511-2.149,4.229-5.374,8.182-9.674,11.857,4.991.431,9.054,2.653,12.196,6.663,3.136,4.014,4.708,9.458,4.708,16.339,0,10.022-2.957,18.857-8.871,26.495-5.914,7.644-12.953,12.212-21.118,13.71-7.819,1.436-14.437-.111-19.856-4.638-5.42-4.525-8.574-11.486-9.464-20.87Z"/>
  </g>
  <path d="M1353.314,2898.885l-8.771-13.345c-.46-.698-47.882-71.44-161.127-141.257-66.536-41.02-142.447-73.71-225.631-97.159-104.118-29.351-219.992-44.233-344.407-44.233h-196.241v-10.507c0-100.009-81.362-181.371-181.371-181.371h-10.507v-476.493c-10.464-11.754-47.785-55.542-85.534-122.513-40.254-71.422-88.241-183.528-88.241-312.007s47.986-240.585,88.241-312.007c37.749-66.973,75.07-110.759,85.534-122.513v-476.494h10.507c100.009,0,181.371-81.363,181.371-181.371v-10.507h196.241c124.415,0,240.29-14.882,344.407-44.233,83.184-23.449,159.096-56.138,225.631-97.158,113.246-69.818,160.668-140.56,161.134-141.266l8.793-13.336,8.771,13.346c.46.696,47.882,71.438,161.127,141.256,66.531,41.02,142.445,73.709,225.627,97.158,104.114,29.351,219.986,44.233,344.399,44.233h196.241v10.507c0,100.008,81.362,181.371,181.371,181.371h10.507v476.494c10.464,11.752,47.787,55.54,85.534,122.513,40.256,71.422,88.243,183.528,88.243,312.007s-47.986,240.585-88.243,312.007c-37.746,66.971-75.07,110.758-85.534,122.513v476.493h-10.507c-100.009,0-181.371,81.362-181.371,181.371v10.507h-196.241c-124.413,0-240.285,14.882-344.399,44.233-83.182,23.449-159.096,56.14-225.627,97.159-113.246,69.817-160.668,140.559-161.134,141.267l-8.793,13.335ZM437.881,2581.877h175.496c126.74,0,244.868,15.241,351.101,45.302,85.181,24.102,162.962,57.736,231.18,99.966,90.067,55.756,139.08,111.134,157.67,134.893,18.59-23.759,67.603-79.137,157.668-134.893,68.218-42.23,145.997-75.864,231.178-99.966,106.231-30.061,224.357-45.302,351.093-45.302h175.496c5.303-103.258,88.351-186.307,191.609-191.609v-463.939l2.824-3.029c.429-.46,43.371-46.876,85.708-122.129,38.89-69.119,85.245-177.477,85.245-301.171s-46.355-232.053-85.245-301.173c-42.337-75.252-85.279-121.668-85.708-122.128l-2.822-3.027-.002-4.14v-459.803c-103.258-5.303-186.307-88.351-191.609-191.608h-175.496c-126.736,0-244.862-15.242-351.093-45.301-85.181-24.104-162.96-57.738-231.178-99.967-90.065-55.756-139.078-111.134-157.668-134.891-18.59,23.757-67.603,79.135-157.67,134.891-68.218,42.23-145.999,75.863-231.18,99.967-106.234,30.059-224.361,45.301-351.101,45.301h-175.496c-5.303,103.257-88.351,186.306-191.609,191.608v463.94l-2.824,3.03c-.429.46-43.371,46.876-85.708,122.128-38.887,69.118-85.243,177.477-85.243,301.173s46.355,232.052,85.243,301.171c42.337,75.253,85.279,121.669,85.708,122.129l2.822,3.025.002,4.141v459.802c103.258,5.303,186.307,88.351,191.609,191.609Z"/>
  <path d="M2193.958,606.088c-1.03-3.671-2.887-6.858-5.573-9.562-17.979-22.957-49.509-30.131-77.212-31.367-25.698-1.148-51.757,1.99-76.733,7.986-34.879,8.373-67.922,23.788-96.994,44.732.078-.095.161-.187.24-.283,2.161-2.638,4.248-5.341,6.261-8.093.514-.702,1.046-1.402,1.525-2.128.188-.285.316-.483.401-.618,1.357-1.781,2.756-3.529,4.085-5.332,7.882-10.694,13.579-23.305,16.541-36.267,1.753-7.671,2.513-15.485,2.657-23.333.061-3.297.012-6.605.162-9.896.143-3.153.18-6.203-.817-9.291-1.037-3.21-2.512-6.344-3.838-9.422-1.722-3.999-7.554-8.029-11.656-8.963-4.361-.993-8.558-.764-12.699.983-8.389,3.54-14.54,13.798-11.292,23.008.946,2.682,1.648,5.401,2.754,8.023.814,1.928,1.935,3.641,2.958,5.437.577,1.791,1.061,3.595,1.43,5.44.616,6.179.527,12.373-.164,18.543-1.334,8.49-3.452,16.798-5.988,25.015-.627,2.032-1.455,4.021-2.04,6.061-.007.024-.006.026-.012.048-.173.342-.333.693-.501,1.037-.637,1.301-1.294,2.592-1.971,3.872-2.123,4.017-4.453,7.919-6.919,11.734-7.328,11.337-15.867,21.737-24.624,31.967.71-3.398,1.329-6.819,1.766-10.286,2.083-16.525-.503-33.168-7.587-48.23-6.854-14.572-18.943-25.577-32.568-33.715-1.505-.899-3.051-1.701-4.648-2.425-3.088-1.399-6.505-3.251-9.892-3.943-5.113-1.044-10.723-1.69-15.991-1.494-5.372.2-11.084.991-16.257,2.629-3.496,1.107-6.922,2.629-10.24,4.149-3.451,1.582-6.373,4.059-9.253,6.511-4.385,3.732-7.466,11.763-7.213,17.413.249,5.56,1.868,10.494,5.287,14.921,3.144,4.069,7.635,7.65,12.792,8.825,2.182.293,4.364.586,6.546.88,4.445-.014,8.588-1.135,12.429-3.362.44-.205.883-.402,1.33-.591-1.977.834-3.954,1.668-5.931,2.503,2.692-1.131,5.291-2.381,7.905-3.605,1.911-.648,3.857-1.164,5.832-1.57,2.731-.104,5.45.039,8.175-.18,2.422-.194,4.873-.173,7.309-.017,1.983.463,3.939,1.067,5.85,1.777,2.134,1.006,4.209,2.147,6.165,3.461,2.426,2.11,4.629,4.418,6.722,6.882.035.048.071.096.105.145.63.888,1.238,1.792,1.821,2.712,1.228,1.937,2.353,3.938,3.372,5.992.38.765.728,1.543,1.083,2.319.138.356.279.711.412,1.069.815,2.185,1.528,4.407,2.142,6.657.576,2.108,1.054,4.241,1.445,6.391.147.81.269,1.623.399,2.435.063.627.141,1.253.201,1.88.427,4.527.643,9.168.192,13.699-.041.407-.175,1.526-.201,1.803-.13.895-.265,1.789-.421,2.68-.445,2.546-.985,5.075-1.605,7.584-1.524,6.168-3.574,12.148-5.965,17.992-1.19,1.515-2.384,3.027-3.548,4.56-.683.9-.287,1.895.47,2.466-.319.68-.611,1.372-.939,2.049-2.428,5.004-5.026,9.938-7.722,14.802-1.42,2.563-2.879,5.105-4.363,7.631-1.453,2.474-2.341,5.273-3.407,7.933-1.173,2.929,2.849,4.38,4.775,2.779,1.519-1.263,3.134-2.468,4.558-3.836,1.524-1.463,2.811-3.256,4.144-4.894,2.627-3.227,5.194-6.505,7.695-9.83,3.787-5.035,7.295-10.314,10.502-15.753,12.086-13.52,25.789-25.605,40.61-36.068,12.247-8.646,25.2-16.158,38.584-22.894,3.305-1.663,6.642-3.262,10.009-4.797,1.686-.768,3.38-1.52,5.081-2.256.238-.103.475-.204.713-.307.963-.246,1.934-.806,2.852-1.177,6.918-2.799,13.947-5.323,21.066-7.563,15.509-4.878,31.388-8.618,47.481-10.946,20.02-2.53,40.483-2.701,60.526-.287,9.692,1.495,19.255,3.796,28.41,7.325,4.956,2.251,9.689,4.922,14.106,8.107,3.025,2.508,5.875,5.182,8.457,8.145,1.771,2.455,3.96,4.492,6.615,6.062,1.726.728,3.451,1.456,5.177,2.184,6.526,2.112,13.655.166,18.891-3.879,4.699-3.63,7.363-8.256,8.153-14.137.645-2.88.516-5.761-.387-8.641Z"/>
  <path d="M936.845,1265.188c-2.656.9-5.343,1.687-8.05,2.371,2.733-1.265,5.506-2.417,8.396-3.209,2.671-.732,1.168-4.797-1.518-3.601-6.485,2.887-14.158,3.492-21.159,4.416-6.597.871-13.135,2.006-19.761,2.687-4.166.428-8.34.742-12.518,1.002-4.572-.887-9.1-2.061-13.545-3.552-2.47-.828-4.917-1.736-7.323-2.738-.217-.095-.52-.226-.608-.267-.808-.372-1.621-.731-2.425-1.111-1.344-.636-2.675-1.3-3.993-1.99-4.735-2.478-9.283-5.311-13.611-8.446-.541-.392-1.073-.794-1.612-1.188-.474-.346-.604-.389-.568-.312-.735-.677-1.564-1.61-1.818-1.852-1.907-1.804-3.751-3.674-5.53-5.604-3.418-3.708-6.922-7.344-10.11-11.261-.228-.28-.452-.564-.677-.847-.007-.009-.01-.014-.017-.023-.861-1.158-1.7-2.331-2.517-3.521-1.643-2.39-3.196-4.842-4.656-7.348-2.512-4.31-4.783-8.784-6.825-13.343-3.466-8.771-5.904-18.033-7.432-27.346-.519-4.974-.592-9.956-.122-14.937.249-1.654.418-3.312.209-4.957-.35-2.763-.583-5.518-1.39-8.186-1.899-6.274-6.637-11.271-13.033-13.033-6.214-1.711-13.702-.038-18.155,4.799-2.895,3.145-4.795,6.102-6.409,9.927-1.782,4.223-2.101,8.929-2.385,13.494-.263,4.25-.113,8.521.366,12.75.647,5.711,1.372,11.561,2.882,17.13,1.46,5.384,3.922,10.637,6.225,15.686,6.482,14.213,16.049,27.135,27.442,37.799,5.985,5.603,12.538,11.12,19.712,15.11,4.363,2.427,8.898,4.634,13.49,6.688-5.299-.239-10.595-.564-15.882-1.047-7.087-.647-14.172-1.128-21.236-2.022-.427-.054-.855-.11-1.282-.166-.499-.073-1.139-.165-1.334-.193-1.597-.232-3.191-.475-4.783-.731-3.537-.569-7.063-1.201-10.58-1.885-51.171-9.953-104.867-26.999-156.586-10.651-13.606,4.3-25.704,10.814-36.568,20.044-5.529,4.698-10.081,10.25-14.323,16.123-1.616,2.238-3.113,4.58-4.391,7.026-.641,1.226-1.243,2.465-1.82,3.723-.24.523-.481,1.047-.715,1.572-2.085,3.595-3.134,7.473-3.147,11.633.09,2.281.411,4.519.966,6.713,1.85,7.62,8.404,13.801,15.853,15.853,7.923,2.182,16.226-.191,22.083-5.837,5.672-5.466,6.602-13.066,9.028-20.131,1.667-3.464,3.626-6.764,5.846-9.904,4.107-4.967,8.775-9.491,13.798-13.522,2.561-1.872,5.206-3.639,7.95-5.22,1.777-1.024,3.612-1.958,5.457-2.855.868-.422,1.741-.832,2.619-1.231.263-.119.527-.236.792-.353,3.91-1.555,7.868-2.904,11.936-3.989,1.985-.529,3.984-1.006,5.995-1.427.938-.197,1.879-.381,2.822-.553.402-.073.806-.138,1.209-.212,5.407-.386,10.811-.563,16.233-.443,2.78.061,5.554.168,8.319.459,1.303.137,2.605.285,3.906.445.471.058.942.118,1.413.18.519.077,1.218.18,1.368.202,11.396,1.686,22.66,4.144,33.875,6.756,11.271,2.625,22.491,5.493,33.862,7.661,11.741,2.238,23.594,3.96,35.498,5.046,22.929,2.092,46.002.452,68.73-2.98,9.853-1.488,19.438-3.985,28.91-6.974,15.574-1.533,30.608-5.61,44.747-12.696,1.98-.992.602-4.319-1.518-3.601Z"/>
  <path d="M375.681,1300.827c-8.76-2.639-17.711-1.773-26.683-.738-8.772,1.011-17.544,2.374-26.107,4.562-16.153,4.13-31.962,10.765-46.405,19.068-13.365,7.684-25.341,17.729-35.822,29.201,2.61-3.702,5.233-7.379,7.842-11.035,11.28-15.805,23.282-31.447,32.609-48.528,9.487-17.373,17.267-36.265,20.77-55.817,2.057-11.486,2.858-23.358,1.735-34.989-.598-6.2-1.49-12.43-2.985-18.484-.65-2.634-1.416-5.24-2.296-7.806-.742-2.163-1.52-4.432-2.659-6.417-1.79-3.121-4.696-5.157-7.674-6.995-7.72-4.764-19.597-.422-21.56,8.771-.453,2.122-1.054,4.229-1.054,6.428,0,2.742.604,4.546,1.492,6.885.857,2.258,1.623,4.55,2.3,6.868,1.154,3.954,2.014,7.979,2.667,12.042,1.157,10.328.78,20.639-.439,30.948-2.09,14.091-6.116,27.765-11.512,40.943-.028.069-.064.164-.102.269-.291.879-.755,1.748-1.128,2.595-.64,1.45-1.272,2.903-1.898,4.359-1.629,3.787-3.339,7.539-5.109,11.262-3.131,6.584-6.454,13.076-9.86,19.522-14.07,26.623-29.58,52.372-39.497,80.949-5.442,15.679-9.03,32.041-9.551,48.665-.068,2.17,3.496,2.748,3.87.524.237-1.407.542-2.789.823-4.18.602-.142,1.155-.528,1.419-1.281,4.804-13.672,11.339-26.247,19.773-38.032,8.187-11.441,18.033-21.784,28.864-30.753,1.21-1.002,2.437-1.985,3.673-2.956.242-.184.937-.72,1.12-.858.874-.658,1.756-1.307,2.643-1.947,2.783-2.01,5.629-3.927,8.522-5.775,6.404-4.092,13.121-7.634,19.821-11.208,3.433-1.832,6.928-3.549,10.474-5.15.623-.281,1.25-.553,1.875-.829.332-.109.708-.312.978-.423,1.791-.733,3.593-1.438,5.407-2.112,7.274-2.704,14.726-4.932,22.289-6.671,4.226-.972,8.487-1.834,12.762-2.561,1.033-.175,2.067-.342,3.103-.5.293-.045.586-.087.88-.13,1.905-.228,3.808-.456,5.718-.634,4.309-.4,8.633-.642,12.96-.722,2.239-.041,4.485.043,6.722-.06,3.169-.145,6.163-.877,9.23-1.576,5.248-1.195,9.643-6.949,9.401-12.348-.258-5.746-3.813-10.664-9.401-12.348Z"/>
  <g>
    <path d="M785.454,591.479c2.79-1.032,1.697-.708.897-.389-.086.037-.174.071-.26.108-.213.092-.424.188-.637.281Z"/>
    <path d="M1064.729,498.205c-10.431,3.221-20.668,7.016-31.15,10.101-10.199,3.002-20.505,5.641-30.869,8.008-21.333,4.872-42.861,8.935-64.429,12.612-21.436,3.654-42.792,7.785-64.118,12.041-19.616,3.915-39.27,7.28-58.71,12.072-39.158,9.651-78.305,23.38-112.754,44.656-33.57,20.733-62.816,49.154-81.186,84.349-8.927,17.103-15.992,35.584-19.366,54.626-1.868,10.543-3.148,21.293-3.123,32.015.025,10.632,1.546,21.382,3.939,31.732.902,3.905,1.87,7.687,3.933,11.232,1.84,3.162,4.729,6.238,7.248,9.022,2.396,2.648,6.457,4.811,9.867,5.751,4.87,1.341,9.963.812,14.559-1.127,3.676-1.551,6.504-3.728,8.944-6.886,3.261-4.221,4.198-8.222,4.801-13.548.114-1.012.238-2.023.371-3.033-.087.648-.174,1.297-.261,1.945.497-4.116.619-7.655-.535-12.353-.407-1.657-.82-3.311-1.18-4.979-.505-2.335-.916-4.687-1.29-7.044-1.301-11.692-1.481-23.401-.204-35.103,2.022-12.834,5.583-25.359,10.416-37.418,6.625-15.014,15.08-29.341,24.92-42.474,10.554-13.263,22.673-25.051,35.96-35.566,17.811-13.501,37.232-24.881,57.575-34.112,2.444-1.109,4.905-2.178,7.368-3.245-.105.039-.201.074-.317.117.322-.119.637-.262.954-.398.015-.006.029-.013.044-.019.066-.029.14-.058.216-.089.278-.121.559-.234.838-.349,1.507-.624,3.017-1.239,4.531-1.846,5.51-2.211,11.063-4.313,16.65-6.32,10.904-3.918,21.934-7.479,33.046-10.76,11.348-3.351,22.775-6.429,34.244-9.34,12.196-3.096,24.618-5.429,36.934-8.001,25.042-5.228,49.895-11.239,74.513-18.216,13.657-3.87,27.158-8.53,40.43-13.556,6.833-2.588,13.75-5.227,20.536-8.148-10.521,8.161-20.649,16.808-30.844,25.369-6.391,5.367-12.542,11.018-18.429,16.934-6.389,6.422-11.896,14.012-17.283,21.265-20.573,27.699-34.634,60.839-41.062,94.708-2.004,10.561-3.473,21.258-4.422,31.965-.412,4.645-.925,9.366-.604,14.025.162,2.345.354,4.687.577,7.026.227,2.373.365,4.841.877,7.16.519,2.351,1.664,4.771,2.787,6.942,5.423,10.478,23.182,11.021,28.443,0,.998-2.091,2.077-4.301,2.658-6.545.624-2.411.673-5.065.935-7.557.261-2.484.56-4.964.886-7.44-.221,1.648-.443,3.296-.664,4.944,1.38-10.245,1.707-20.589,2.901-30.865,1.856-12.94,4.443-25.801,7.932-38.398,3.594-12.971,7.297-25.919,12.118-38.498.587-1.532,1.187-3.058,1.801-4.58.474-1.175,2.9-6.523.649-1.625,1.915-4.166,3.539-8.463,5.264-12.709.165-.385.329-.77.496-1.155.663-1.527,1.338-3.047,2.027-4.563,1.487-3.273,3.035-6.518,4.643-9.733,5.992-11.979,12.036-24.006,19.04-35.433,7.942-12.957,18.666-24.279,29.921-34.407.617-.556.686-1.322.437-1.99,2.843-1.431,5.648-2.924,8.379-4.529,3.5-2.057,1.213-7.903-2.808-6.661Z"/>
  </g>
  <g>
    <path d="M556.637,760.166c.204-.08.41-.153.614-.234.178-.079.354-.161.531-.241-.387.144-1.008.389-1.402.572.012-.005.025-.009.037-.014.075-.029.143-.057.22-.084Z"/>
    <path d="M631.297,661.893c-3.931-10.06-8.806-18.761-16.095-26.836-6.022-6.671-13.745-12.331-21.937-16.059-10.396-4.731-21.121-7.727-32.662-7.69-11.187.037-22.731,2.778-32.093,9.086-3.019,2.035-6.019,4.261-8.68,6.745-2.5,2.333-4.863,6.05-6.554,9.224-5.649,10.606-3.45,23.449,6.165,30.878,4.037,3.119,9.26,5.374,14.503,5.139,6.59-.295,11.938-2.659,16.925-7.011.517-.451,1.039-.889,1.574-1.318-1.64,1.267-3.28,2.534-4.92,3.801,2.407-1.857,4.766-3.764,7.129-5.666,1.643-1.122,3.364-2.104,5.16-2.964,2.077-.742,4.192-1.34,6.349-1.782,2.606-.175,5.213-.154,7.818.048,2.246.428,4.464,1.005,6.623,1.745,2.084,1.048,4.077,2.247,6.001,3.572,2.385,2.044,4.586,4.275,6.615,6.677,1.732,2.463,3.275,5.05,4.591,7.757,1.627,4.335,2.819,8.8,3.599,13.364.563,5.63.528,11.277-.059,16.902-.935,5.584-2.419,11.04-4.475,16.316-.904,1.963-1.857,3.901-2.928,5.78-.689,1.209-1.412,2.398-2.171,3.564-.538.827-2.324,2.607-2.622,3.635-.348.408-.694.816-1.05,1.218-1.117,1.261-2.271,2.489-3.458,3.685-2.127,2.141-4.373,4.163-6.702,6.083-.544.28-1.186.951-1.614,1.261-1.363.984-2.751,1.933-4.161,2.847-2.828,1.833-5.747,3.524-8.739,5.075-1.385.719-2.786,1.407-4.201,2.066-.48.224-.963.439-1.447.656.443-.165.58-.197-.29.149-.08.032-.161.06-.241.092-.053.023-.105.048-.159.072-.08.035-.264.095-.456.162-.073.028-.147.055-.22.084-.021.008-.04.016-.06.025.008-.004.014-.007.022-.011-2.69,1.05-5.399,2.041-8.155,2.909-6.583,2.074-13.327,3.561-20.148,4.593-6.912.819-13.87,1.181-20.83.99-3.53-.096-7.056-.323-10.57-.671-.769-.076-1.538-.162-2.306-.25-.577-.283-1.953-.26-2.486-.344-.993-.156-1.985-.323-2.975-.498-7.044-1.251-13.998-2.992-20.808-5.182-3.462-1.114-6.886-2.346-10.266-3.688-.591-.234-1.179-.479-1.768-.718-.056-.024-.111-.048-.167-.072-1.729-.756-3.446-1.541-5.149-2.355-6.565-3.136-13.086-6.538-19.365-10.215-3.031-1.775-6.008-3.642-8.925-5.6-1.455-.976-2.895-1.974-4.319-2.994-1.335-.957-3.497-2.055-4.515-3.347.137.174,2.129,1.676.541.409-.297-.237-.595-.471-.891-.708-.692-.552-1.379-1.109-2.062-1.672-1.461-1.204-2.902-2.432-4.322-3.683-2.643-2.328-5.215-4.737-7.71-7.223-5.121-5.105-10.012-10.483-14.51-16.147-.131-.165-.262-.331-.392-.497-.114-.145-.352-.451-.552-.715-.609-.804-1.211-1.614-1.804-2.43-1.185-1.627-2.34-3.276-3.464-4.947-2.242-3.334-4.281-6.771-6.315-10.232-.439-.747-.843-1.512-1.267-2.267-.892-2.152-1.814-4.291-2.766-6.417-1.884-4.206-3.651-8.545-6.526-12.165-.324-.408-.704-.599-1.088-.642-1.952-2.803-6.94-1.524-6.802,2.134.334,8.847,2.945,17.851,6.198,26.083-.32-.809.618,1.59.697,1.78.527,1.279,1.066,2.554,1.613,3.825.847,1.967,1.732,3.918,2.657,5.85,1.788,3.736,3.719,7.403,5.789,10.99.435.754.904,1.487,1.352,2.233,1.261,7.361,2.135,14.798,2.329,22.217.16,6.121.091,12.248-.198,18.364-.146,3.083-.337,6.148-.718,9.212-.022.171-.039.313-.053.432-.02.132-.044.29-.076.514-.079.539-.155,1.078-.235,1.617-.281,1.889-.585,3.775-.91,5.658-2.079,12.02-4.356,23.874-7.564,35.655-3.596,13.208-7.933,26.365-13.148,39.034-3.194,7.356-6.713,14.585-10.441,21.681-2.075,3.95-4.263,7.84-6.563,11.664-1.151,1.914-2.388,3.777-3.537,5.692-1.779,2.965-2.653,6.106-3.376,9.421-1.348,6.18.441,12.314,5.542,16.255,4.524,3.495,12.195,4.794,17.176,1.209,2.396-1.724,4.87-3.445,6.967-5.531,2.343-2.331,4.003-5.628,5.652-8.492,2.018-3.508,3.943-7.069,5.775-10.677,4.244-8.361,7.91-16.99,11.06-25.821,2.76-7.736,5.121-15.614,7.085-23.589,2.206-8.952,3.478-18.075,4.458-27.239,1.793-16.766,1.315-33.493-.958-50.175-.016-.115-.082-.712-.119-1.025-.018-.219-.038-.456-.04-.471-.105-1.118-.243-2.234-.376-3.349-.294-2.47-.623-4.936-.97-7.398-.557-3.956-1.21-7.9-1.96-11.824-.184-.964-.372-1.929-.558-2.894,5.387,6.522,11.246,12.656,17.496,18.316,6.841,6.196,14.18,11.912,21.828,17.078,6.954,4.697,14.637,8.403,22.345,11.684,17.475,7.437,35.447,12.158,54.399,13.827,37.682,3.319,78.776-7.559,105.991-34.809,12.959-12.976,22.524-29.283,26.421-47.287,3.823-17.658,3.186-36.51-3.429-53.436Z"/>
  </g>
  <g>
    <path d="M1871.727,2397.727c-3.753-7.741-9.34-14.972-15.261-21.139-2.28-2.375-4.737-4.551-7.31-6.602-5.31-4.231-11.099-9.195-17.791-11.064-1.053-.432-2.103-.875-3.159-1.301-17.401-8.625-38.136-11.537-57.247-12.562-18.425-.989-36.764.641-55.128,1.916-47.097,3.271-94.131,9.933-140.543,18.487-45.541,8.393-90.647,19.009-135.738,29.509-45.095,10.501-89.997,21.811-135.134,32.13-45.173,10.328-90.53,20.19-136.387,26.979-4.55.674-9.106,1.304-13.663,1.928-17.669,2.305-35.572,3.587-53.35,4.616-18.195,1.054-36.466,1.669-54.595-.515-11.536-1.77-22.917-4.441-33.746-8.864,1.553.656,3.106,1.311,4.66,1.966-3.083-1.327-6.223-2.466-9.342-3.682-1.569-.692-3.141-1.381-4.676-2.147-.967-.482-1.946-.958-2.883-1.497-1.4-.805-2.883-1.373-4.369-1.932-2.866-1.416-5.847-3.184-8.784-3.971-.144-.067-.292-.127-.435-.195-.708-.336-1.404-.724-2.12-1.041-.263-.117-.417-.167-.516-.186-.026-.021-.043-.034-.07-.055-.842-.836-1.835-1.415-2.978-1.735-2.208-.929-2.149-.907.176.066-.117-.341-1.337-.84-1.628-1.028-.535-.347-1.067-.7-1.593-1.06-.073-.05-.16-.118-.249-.191.033.031.048.045.083.078-3.354-3.204-8.295-4.053-12.485-2.203-.098.015-.17.027-.3.047-1.098.17-1.959.372-2.598,1.389-.385.613-1.717,2.115-.358.767-3.443,3.414-4.3,9.303-1.74,13.488,1.166,1.907,1.856,4.095,3.069,5.981.018.035.023.041.039.071.019.045.033.078.053.125.321,1.143.899,2.135,1.735,2.977,1.249,1.613,1.407,1.82.476.621-1.313-1.405-.305-.257-.005.262.321.555.647,1.107.98,1.654,2.92,4.793,6.399,9.021,10.304,13.054-.122-.158-.244-.316-.366-.474,3.783,4.201,9.18,7.559,13.835,10.461,5.193,3.237,10.542,5.644,16.244,7.91,9.896,3.933,20.096,6.327,30.633,7.743,23.233,3.121,46.408,1.826,69.587-1.116,17.694-2.246,35.322-4.95,52.93-7.787,16.703,1.535,33.285,3.909,49.674,7.577,9.371,2.097,18.646,4.648,27.736,7.75,3.739,1.276,7.443,2.656,11.105,4.14.49.199.979.4,1.469.601.026.011.185.077.348.146.284.123.76.327.87.375.362.157.723.315,1.085.474,1.927.85,3.843,1.728,5.743,2.638,7.007,3.355,13.745,7.41,20.213,11.703,3.3,2.191,6.493,4.517,9.675,6.874.211.168.426.332.634.498.716.567,1.426,1.14,2.133,1.718,1.513,1.238,3.005,2.503,4.475,3.793,3.321,2.916,6.306,6.236,9.205,9.567,1.371,1.576,2.71,3.178,4.016,4.807.177.221.356.443.531.669.598.796,1.194,1.592,1.778,2.4,4.633,6.415,8.356,13.524,11.539,20.775,3.275,8.245,5.839,16.916,7.313,25.671.876,8.732.519,17.56-.422,26.287-.895,5.582-2.305,11.051-4.289,16.344-1.654,3.459-3.567,6.784-5.749,9.935-2.435,2.775-5.109,5.314-8.044,7.584.492-.38.983-.759,1.475-1.139-2.413,1.958-4.474,3.964-6.434,6.974-.439.674-.856,1.36-1.3,2.03-.865,1.308-1.643,2.667-2.497,3.983-4.108,6.326-3.722,15.216,0,21.576,3.89,6.646,10.86,10.366,18.457,10.586,4.325.126,8.663-.448,12.877-1.423,6.516-1.507,11.889-6.274,16.683-10.734,5.341-4.97,9.955-10.974,13.773-17.169,8.064-13.084,11.56-27.878,13.194-42.965,1.411-13.028-.881-26.652-5.054-39.038-2.351-6.978-5.208-14.016-8.914-20.399-3.862-6.652-8.623-12.875-13.503-18.796-8.53-10.351-18.773-19.342-29.437-27.427-10.356-7.851-21.375-15.087-32.946-21.018-25.871-13.261-53.874-21.21-82.627-24.969,4.269-.777,8.532-1.582,12.795-2.387,16.671.359,33.287,1.973,49.718,4.902,42.25,7.533,82.739,21.734,122.708,37.027,40.342,15.435,80.822,31.307,123.209,40.253,37.331,7.879,75.85,9.311,113.328,1.55,34.828-7.213,67.595-23.195,95.51-45.111,2.732-2.144,5.36-4.41,7.931-6.744,3.523-2.497,6.964-5.097,10.365-7.774-1.539,1.189-3.078,2.378-4.616,3.567,3.817-1.927,7.319-5.467,9.266-9.27,2.078-4.06,2.777-7.604,3.203-12.237.132-1.44.228-2.882.305-4.325.368-6.929-4.07-13.852-9.903-17.266-6.528-3.82-13.623-3.201-20.185,0-2.605,1.271-4.951,2.304-7.279,4.102-2.672,2.064-2.588,1.998-4.655,4.673-1.996,2.583-3.108,5.149-4.202,8.217-.117.328-.251.653-.371.981-.409.91-.793,1.83-1.223,2.73-.43.901-.961,1.737-1.53,2.55-5.961,7.51-12.571,14.248-20.06,20.231-8.431,6.194-17.464,11.15-27.044,15.363-17.295,7.089-35.461,11.628-53.942,14.297-12.073,1.52-24.241,2.215-36.41,2.015-6.189-.102-12.371-.433-18.538-.971-3.855-.336-7.704-.741-11.546-1.211-1.915-.234-3.83-.476-5.744-.719-.078-.01-.181-.019-.293-.03-1.236-.078-2.501-.353-3.724-.534-31.372-4.64-62.017-13.108-92.279-22.428-54.214-16.694-108.105-36.646-164.608-43.425,34.221-7.413,68.229-15.773,102.189-24.316,42.328-10.648,84.512-22.118,127.092-31.726,42.423-9.574,85.09-18.193,128.125-24.547,4.463-.659,8.931-1.278,13.4-1.888,16.017-2.102,32.068-3.731,48.182-4.902,16.213-1.179,32.628-2.423,48.889-2.028,7.049.171,14.09.585,21.108,1.266l-4.931-.663c2.41.336,4.821.624,7.233.921,13.359,1.923,26.581,4.996,39.141,9.979,4.668,2.1,9.212,4.502,13.319,7.544,2.685,2.117,5.372,4.231,8.105,6.31-1.639-1.267-3.279-2.533-4.918-3.8,3.979,3.079,7.608,6.536,10.868,10.346,2.255,3.289,4.189,6.739,5.941,10.353,2.603,5.369,9.319,9.917,14.893,11.452,5.965,1.643,13.909.901,19.203-2.512,5.321-3.431,10.005-8.539,11.453-14.893,1.554-6.825.543-12.9-2.512-19.203Z"/>
    <path d="M977.866,2434.559c-1.634-1.557-.686-.558,0,0h0Z"/>
  </g>
  <g>
    <path d="M845.691,2387.366c-.212-27.502-1.193-54.981-2.022-82.471-.232-7.717-.687-15.408-1.158-23.113-.235-3.85-.399-7.712-.704-11.557-.351-4.43-1.728-8.644-3.128-12.83-1.284-3.836-5.258-6.019-9.134-4.386-2.104.887-3.357,2.533-3.825,4.426-.031-.013-.063-.027-.094-.04-1.146,3.173-2.369,6.385-3.004,9.713-.749,3.924-.811,8.068-1.15,12.048-.582,6.823-1.283,13.649-1.655,20.486-.751,13.833-1.502,27.665-2.253,41.498-.525,9.663-.949,19.326-1.342,28.991-6.57-10.108-14.728-19.104-24.643-26.394-8.389-6.169-18.644-10.373-28.8-12.571-6.371-1.378-12.715-2.218-19.062-2.129-13.518-2.567-27.218-2.236-40.796-.091-31.787,5.022-60.211,21.417-89.193,34.419-2.029.91-4.063,1.811-6.102,2.697-.893.388-1.789.771-2.685,1.155-.56.24-1.126.469-1.688.7-4.003,1.644-8.053,3.137-12.163,4.493-7.849,2.59-15.771,4.204-23.907,5.401-9.822,1.128-19.715,1.26-29.548.23-4.575-.76-9.093-1.813-13.502-3.272-2.533-.838-5.032-1.769-7.56-2.618-1.271-.427-2.531-.887-3.779-1.379-6.605-2.602-14.97-1.653-20.998,1.875-7.183,4.203-12.278,12.397-12.084,20.779.157,6.819,2.531,13.03,7.462,17.889,3.924,3.866,8.68,5.828,13.768,7.481,6.941,2.254,14.342,3.065,21.622,3.292,12.657.393,25.614-1.601,37.713-5.274,12.233-3.714,23.52-9.325,34.858-15.109,38.723-19.754,72.726-51.174,115.614-61.308-2.926,2.275-5.602,4.841-7.864,7.718-4.325,5.5-7.334,10.744-9.943,17.251-2.144,5.346-3.052,10.827-3.644,16.554-1.517,14.677,4.228,28.819,13.622,39.825,5.731,6.713,13.472,11.522,21.603,14.693,2.729,1.064,5.489,1.846,8.385,2.301,2.204.346,4.639.839,6.869.921,2.5.092,5.186-.357,7.647-.827,1.523-.291,3.007-.722,4.474-1.218,10.341-3.497,17.081-12.813,15.593-23.885-.614-4.567-2.49-9.289-5.987-12.499-1.468-1.135-2.937-2.269-4.405-3.404-2.91-1.688-6.029-2.612-9.331-2.862-1.375-.258-2.751-.515-4.149-.703-1.414-.19-2.826-.301-4.238-.414-1.843-.392-3.671-.893-5.457-1.497-1.057-.545-2.084-1.14-3.086-1.781-.849-.765-1.66-1.57-2.431-2.411-.641-.995-1.228-2.023-1.767-3.078-.454-1.382-.84-2.781-1.135-4.208-.148-2.137-.13-4.274.032-6.412.5-2.641,1.219-5.23,2.142-7.755.913-1.94,1.898-3.855,3.008-5.682.276-.455.58-.889.882-1.325.029-.095.468-.795.855-1.257.174-.253.354-.501.521-.76-.153.239-.289.447-.413.638.574-.663,1.167-1.311,1.784-1.934.853-.862,1.768-1.641,2.672-2.444.577-.4,1.145-.81,1.734-1.194,1.313-.855,2.67-1.642,4.063-2.359.65-.334,1.313-.637,1.972-.953.405-.158.811-.314,1.22-.462,2.975-1.074,6.001-1.756,9.091-2.385.098-.02.305-.054.489-.084.659-.083,1.321-.161,1.982-.209,1.862-.136,3.732-.06,5.593.071,5.253.368,11.37,2.193,16.637,4.783,19.364,9.523,30.121,29.135,35.342,49.255-.255,7.735-.503,15.47-.75,23.208-.246,7.716-.093,15.396.06,23.113.077,3.871.245,7.697.551,11.556.153,1.927.264,3.86.503,5.778.214,1.718.408,3.161.698,4.77.061.338.229,1.525.35,2.281-.116,6.537,6.757,12.59,13.077,12.307,3.376-.151,6.878-1.26,9.23-3.823,2.497-2.72,3.38-5.593,3.824-9.231-.434,3.562.55-1.64.716-2.528.489-2.628.712-5.32.987-7.978.363-3.503.723-6.986.878-10.506.3-6.815.828-13.665.775-20.486-.107-13.833-.214-27.665-.321-41.498Z"/>
    <path d="M732.425,2358.439c-.287.417-.566.841-.855,1.257-.023.076.216-.237.962-1.379-.021.024-.044.047-.065.071-.014.016-.028.034-.042.051Z"/>
  </g>
  <path d="M1548.087,419.239c-2.067-6.389-5.82-10.858-11.317-14.717-5.032-3.532-10.221-6.376-15.868-8.807-7.229-3.111-14.283-6.049-21.942-7.86-12.971-3.067-26.38-4.696-39.705-4.836-25.477-.268-51.101,3.096-76.067,7.915-26.497,5.114-52.442,12.487-78.683,18.692-8.213,1.942-16.411,3.947-24.605,5.978,6.35-3.795,12.448-7.937,18.567-12.117,16.312-11.142,31.001-24.567,42.587-40.621,8.307-11.51,14.154-26.47,9.105-40.577-4.003-11.183-12.736-20.737-24.987-22.383-8.598-1.155-17.144,1.783-22.538,8.765-1.757,2.274-3.191,4.807-3.898,7.643-.764,3.064-.965,6.915,0,9.898.304.941.707,1.878,1.13,2.807.335.833.622,1.454.953,2.052.022.047.045.097.067.144-.014-.033-.028-.066-.042-.099.472.843,1.047,1.648,2.037,2.93,1.228,1.59,2.643,2.85,4.143,4.049-.524-.405-1.048-.809-1.571-1.214,1.317,1.139,2.687,2.18,4.093,3.167.108.082.212.161.321.244-.094-.073-.189-.146-.283-.219.938.656,1.881,1.305,2.879,1.884.373.216.746.428,1.119.641.003.504-.022,1.012-.044,1.516-.244.894-.547,1.775-.876,2.645-2.679,5.962-5.919,11.698-9.45,17.186-1.786,2.775-3.661,5.492-5.62,8.148-.184.25-1.199,1.951-1.479,1.972.33-.426.66-.852.991-1.277-.345.443-.692.885-1.041,1.325-1.133,1.427-2.289,2.836-3.465,4.226-4.433,5.237-9.115,10.175-14.304,14.667-2.528,2.189-5.118,4.302-7.745,6.371-.133.105-.244.193-.337.266-.111.081-.242.178-.424.313-.681.505-1.355,1.02-2.037,1.524-1.591,1.176-3.197,2.33-4.818,3.463-17.744,12.402-37.006,21.879-57.024,29.687-10.696,2.846-21.376,5.751-32.003,8.835-7.862,2.282-15.703,4.644-23.531,7.041-7.571,2.318-15.432,4.256-22.577,7.691-.024.012-.051.021-.074.034-.045.022-.092.041-.138.063-1.698.825-.943,3.891.994,3.671,5.318-.605,10.359-2.027,15.542-3.342.411-.104.823-.204,1.234-.308.095-.016.194-.03.289-.047,5.207-.926,10.411-1.872,15.608-2.86,10.37-1.97,20.711-4.1,30.979-6.546,11.664-2.778,23.235-6.011,34.619-9.794,9.344-2.025,18.711-3.926,28.106-5.569,40.902-7.15,81.258-12.795,122.771-15.365,19.858-1.229,39.963-1.5,59.776.659,14.822,2.367,29.505,6.13,43.464,11.68,10.724,4.74,21.029,10.309,30.941,16.575,5.29,3.344,13.027,4.121,18.975,2.483,5.712-1.573,11.902-5.99,14.717-11.317,3.02-5.715,4.533-12.638,2.483-18.975Z"/>
</svg>